<svg data-name="Layer 1" xmlns="http://www.w3.org/2000/svg" width="79.54mm" height="44.69mm" viewBox="0 0 225.47 126.68"><title>doodle</title><path d="M93.51 21.18L92 20.84c-.51-.1-1.14-.29-1.9-.39l-2.6-.34a45.24 45.24 0 0 0-17 1.88A79.73 79.73 0 0 0 59 26.38a132.77 132.77 0 0 0-12.73 7c-4.46 2.76-9 5.81-13.75 9.24A104.93 104.93 0 0 0 18.78 54.5 56.58 56.58 0 0 0 7.72 70.32a20.76 20.76 0 0 0-1 2.35c-.2.77-.53 1.49-.72 2.33l-.67 2.4-.47 2.48a36.45 36.45 0 0 0-.1 10.25 30.26 30.26 0 0 0 9.55 18.6 19.32 19.32 0 0 0 2.12 1.77l1.1.85 1.19.79a43.62 43.62 0 0 0 5 2.71 77 77 0 0 0 11.06 4l1.44.41 1.44.36 3 .73 3 .74c1 .25 2 .5 3 .67 4 .76 8 1.57 12.12 2a163.32 163.32 0 0 0 25 1.31 192 192 0 0 0 25.38-2.34c2.1-.36 4.2-.81 6.3-1.21l3.15-.61 3.12-.75 6.23-1.53 6.16-1.8c2.06-.57 4.08-1.29 6.1-2s4.06-1.34 6-2.15l5.95-2.36c1-.38 2-.81 2.93-1.26l2.91-1.31c3.92-1.64 7.65-3.68 11.44-5.54l5.51-3.11c.9-.52 1.86-1 2.71-1.56l2.71-1.67c3.5-2.25 7-4.54 10.27-7A116.3 116.3 0 0 0 200 81a89.91 89.91 0 0 0 8.23-8.79 71.22 71.22 0 0 0 6.57-9.73A59.33 59.33 0 0 0 219.19 52c1-3.51 1.38-7.05.2-9.74-1.18-2.88-3.82-5.23-6.73-7.28-1.44-1-3-2-4.54-2.91l-4.86-2.76c-1.61-.95-3.21-1.76-4.8-2.57s-3.16-1.65-4.75-2.41l-4.8-2.22c-.8-.36-1.58-.75-2.37-1.09l-2.39-1-4.72-2-4.71-1.77c-3.09-1.22-6.22-2.17-9.25-3.2a235 235 0 0 0-34-8.22A252.45 252.45 0 0 0 104.62 2c-3.75-.15-7.1-.33-10-.29s-5.41 0-7.42.05l-6.2.16a.25.25 0 0 1 0-.5L87.17.8c2-.24 4.51-.34 7.44-.5s6.31-.23 10.1-.3A227 227 0 0 1 132 1.61a213.6 213.6 0 0 1 34.81 7.16 201.53 201.53 0 0 1 39 16l4.9 2.7c1.75 1 3.36 2 5 3.13a33 33 0 0 1 4.79 4 21.64 21.64 0 0 1 2.12 2.56 17.23 17.23 0 0 1 .92 1.48l.46.79c.12.26.2.46.3.69a15.84 15.84 0 0 1 1.15 6.9 27.51 27.51 0 0 1-1.16 6.45A60.12 60.12 0 0 1 219.35 65a76.25 76.25 0 0 1-7.24 10.38 94.79 94.79 0 0 1-8.83 9.16 130.52 130.52 0 0 1-20.7 15.13l-2.75 1.6c-1 .56-1.9 1-2.86 1.55l-5.71 3c-3.92 1.81-7.78 3.78-11.82 5.35l-3 1.22c-1 .41-2 .82-3 1.16l-6.14 2.16c-2 .74-4.14 1.29-6.21 1.94s-4.15 1.28-6.26 1.77l-6.3 1.61c-2.12.47-4.24.89-6.36 1.33l-3.18.65-3.2.51c-2.13.33-4.26.7-6.39 1-4.28.49-8.54 1.13-12.83 1.36-2.14.14-4.27.39-6.4.45l-6.39.21c-2.13.12-4.25 0-6.37 0H72.6l-1.6-.04c-4.21-.25-8.41-.44-12.56-.93-4.16-.33-8.27-1.07-12.37-1.65-1-.13-2-.34-3-.55l-3-.61-3-.61-1.52-.32-1.49-.36a79 79 0 0 1-11.66-3.7 46.63 46.63 0 0 1-5.53-2.73l-1.29-.79-1.26-.89a22.47 22.47 0 0 1-2.44-1.88 32.41 32.41 0 0 1-7.72-9.41A35.57 35.57 0 0 1 .42 90.76a39.41 39.41 0 0 1 3.23-22.28 60.85 60.85 0 0 1 12.09-16.94A89.36 89.36 0 0 1 22.93 45c2.43-2 4.9-3.83 7.34-5.55 4.87-3.43 9.73-6.36 14.29-9 9.19-5.23 17.87-8.83 25.37-10.45a50.25 50.25 0 0 1 10.14-1.32h2.14l2 .07c1.26.13 2.39.25 3.41.4l2.66.57c.76.17 1.36.4 1.87.55l1.51.47a.25.25 0 0 1-.15.44z" fill="#1d1d1b"/></svg>