<svg xmlns="http://www.w3.org/2000/svg" width="56.693" height="56.693" viewBox="0 0 56.693 56.693"><path d="M43.414 4.83H13c-5.283 0-9.58 4.298-9.58 9.58V44.827c0 5.283 4.297 9.58 9.58 9.58h30.415c5.283 0 9.58-4.297 9.58-9.58V14.41c0-5.283-4.298-9.58-9.58-9.58zm2.748 5.714l1.096-.004v8.403l-8.375.027-.03-8.402 7.31-.024zM21.132 24.53c1.587-2.197 4.163-3.638 7.075-3.638s5.488 1.44 7.074 3.638c1.034 1.434 1.653 3.188 1.653 5.088 0 4.81-3.918 8.725-8.727 8.725-4.812 0-8.726-3.914-8.726-8.725 0-1.9.618-3.654 1.65-5.088zm27.032 20.295c0 2.62-2.13 4.75-4.75 4.75H13c-2.62 0-4.75-2.13-4.75-4.75V24.53h7.4c-.64 1.572-1 3.29-1 5.088 0 7.473 6.08 13.557 13.557 13.557 7.475 0 13.555-6.084 13.555-13.557 0-1.8-.36-3.516-1-5.088h7.402v20.295z"/></svg>