<svg xmlns="http://www.w3.org/2000/svg" viewBox="0 0 104.77 128.21"><ellipse cx="35.26" cy="91.11" rx="41.5" ry="23.1" transform="rotate(-40.15 35.267 91.115)" fill="#f2d073"/><path d="M99.36 6.18c-5.74 3.1-10.19 8.24-14.53 13.44a108.64 108.64 0 0 0 8.32-12.54c4.41-8.16-5.47-9.82-5.27-2.08a1.14 1.14 0 0 0 2.24.23q1.34.72-.26 2l-2.12 2.91c-2.25 3.1-4.34 6.3-6.48 9.47-2.67 3.95-5.2 8.14-7.88 12.17 2.52-5 5.79-10.24 7.07-15.71 1.44-6.16-5.9-6-8-1.34a1.39 1.39 0 0 0 2.23 1.62c3-3.06 1.74 2.53.75 4.28-1.46 2.56-2.63 5.37-3.86 8-2.08 4.52-4.29 8.87-6.57 13.17.82-2.24 1.66-4.47 2.52-6.59 1.23-3.05 2.89-10.07.9-13.26-3.92-6.26-14.43 2.81-9.47 6.71a1.11 1.11 0 0 0 1.81-1.13q.16-5.61 5.31-1.26c-.21 1.85-.62 3.73-.91 5.56a55.32 55.32 0 0 1-3.79 11.91c-1.08 2.49-4 6.88-4.24 10.23-13.62-6.07-25.8 12.38-32.51 22.21-3.67 5.37-7.19 10.9-11.16 16-2.94 3.82-4.29 8.32-6.24 12.57-.7 1.53-1.65 3.29-2.64 5.19-2.91 5.61-6.11 12.36-3.77 17.37a1.9 1.9 0 0 0 1.65.88 5.74 5.74 0 0 0 2.13-.19c2.56-.76 4.89-3 6.75-4.7 4.55-4.07 8.77-8.37 13.43-12.31 9.14-7.73 18-15.86 26.89-23.84C58 81.46 66.81 74.2 67.94 65.25c.4-3.15-2-8.13-5.32-10 3.07-3 6.09-6 9.12-9a79.64 79.64 0 0 1 7.57-6.51A13.24 13.24 0 0 1 82.16 38q1.86-2.34 3.67.95a1.31 1.31 0 0 0-.83 2.23l.74.7a1.73 1.73 0 0 0 1.7.4c5.61-2 3.89-11.38-2.33-9.6-5 1.43-9.69 4.88-13.94 9a43.89 43.89 0 0 1 8.07-8.45c3.46-2.64 6.69-5.53 10.28-8 .48-.37 8.43-4.43 6.48-1.15-.48.82-1.23 1.41-1.69 2.23a.88.88 0 0 0 0 .87l.23.39a1.65 1.65 0 0 0 2.55.25c2-1.72 3.71-5 2.07-7.61-2.33-3.72-6.72-.71-9.38.85-1.32.77-2.6 1.6-3.86 2.46 1.94-2.42 4.09-4.62 6-7.08A37.83 37.83 0 0 1 95.5 13l1.82-1.57q1.38-2.8 3.33-1.52a1.27 1.27 0 0 0 1.28 2.09c5.15-1.47 2.68-8.66-2.57-5.82zM63 68.88c-1.86 3.51-4.88 6.72-7.38 9.8-1.6 2-4.72 4.08-6.61 5.95C45.67 88 41.77 90.75 38.29 94l-.93.86a.66.66 0 0 0 0-.18c-.12-1.17-1.12-1.78-2.08-2.32-1.18-.67-2.41-1.27-3.64-1.84a1.11 1.11 0 0 0-1.28 1.78 17.72 17.72 0 0 0 3.22 2.12c.93.51 2 1.24 3.1 1-5.18 4.8-10.38 9.75-15.9 14.13-.38.3-.74.61-1.11.91v-.15a1.66 1.66 0 0 0-.54-1.48 11.8 11.8 0 0 0-2-1.27c-1.27-.84-2.42 1.26-1.13 2.08.42.27.88.48 1.31.74.23.14.46.39.71.51a2.89 2.89 0 0 0 .39.16h.08l.09.08.12.06c-1.62 1.39-3.16 2.84-4.68 4.37A86.65 86.65 0 0 1 7.08 122a15.45 15.45 0 0 1-2.49 1.83c-.6.32-1.05.39-1-.18a21.94 21.94 0 0 1 1-3.86 40.65 40.65 0 0 1 2-4.65c.79.59 1.74 1.07 2.38.39.81-.85-.41-1.8-1.4-2.39a50.88 50.88 0 0 0 4-9.34C13.7 96 20.11 89 24.6 82.39c4.33-6.35 9-13.55 14.47-19 3.29-3.24 6.61-5.91 11-7.55 6-2.26 3.72.57 6.71 1.3a.52.52 0 0 0 .51-.14 1.47 1.47 0 0 0 1.6 1.19 1.78 1.78 0 0 0 .66 0c4.45-.56 4.7 8.37 3.45 10.69z" fill="#000100"/><path d="M43.72 72.14a.73.73 0 0 0 .67-.93c-.39-1.21-1.65-1.85-2.68-2.55s-2.31-1.55-3.51-2.26a1.06 1.06 0 0 0-1.42.42 3.46 3.46 0 0 0-.2.66.91.91 0 0 0 .66 1.08 1 1 0 0 0 .46 0c.83.62 1.67 1.22 2.52 1.81 1.03.8 2.13 1.88 3.5 1.77zM53 69.78a20.15 20.15 0 0 0-2-1.07 3.7 3.7 0 0 0-1.26 0 .69.69 0 0 0-.49 1.27 4.92 4.92 0 0 1 1 .4 17.18 17.18 0 0 0 1.5 1.24c1.25 1 2.86 2.63 4.53 2.51a.79.79 0 0 0 .73-1c-.62-1.65-2.68-2.56-4.01-3.35zM40.4 80.12a1 1 0 0 0-1.12 1.54c1.35 1.4 3.22 2.83 5.18 3a.65.65 0 0 0 .52-1c-.83-1.66-2.89-2.83-4.58-3.54zM30.69 81.73c-1-.56-2-1-3-1.58-1.19-.72-2.09 1.09-1 1.85a20.55 20.55 0 0 0 2.53 1.52 5.13 5.13 0 0 0 2.76.92.68.68 0 0 0 .62-.87 3.41 3.41 0 0 0-1.91-1.84zM19 95.63a14.84 14.84 0 0 0-1.64-1.05 1 1 0 0 0-1.17 1.62c.84.71 2.32 2.1 3.51 1.68a.66.66 0 0 0 .46-.65 2.19 2.19 0 0 0-1.16-1.6z" fill="#000100"/></svg>
