<svg xmlns="http://www.w3.org/2000/svg" width="316.97" height="187.06" viewBox="0 0 316.97 187.06"><g fill="#FFF"><path d="M7.62 124.04l.1-4c0-3.91-.23-8.45-.68-13.62-.46-5.18-.73-8.4-.83-9.67-.29-.62-.46-4.79-.49-12.52-.04-7.74-.11-12.03-.23-12.88-.11-.85-.39-1.86-.83-3.03S4 66.22 4 65.54c0-1.59 2.51-2.39 7.52-2.39h.49c2.54 0 5.27 1.4 8.2 4.2 2.93 2.8 4.84 5.32 5.74 7.57.9 2.25 1.49 4.94 1.78 8.08.29 3.14.5 6.01.61 8.62.11 2.6.33 4.25.66 4.93l-.2 2.69.29.49-.29.83.29.49c-.39.62-.59 1.55-.59 2.78s-.07 2.38-.2 3.42-.26 1.86-.39 2.44c-.13.59-.35 1.46-.66 2.61-.31 1.16-.77 3-1.39 5.54-1.82 7.16-4.85 12.45-9.08 15.87s-6.73 5.13-7.5 5.13c-.77 0-1.55-.17-2.34-.51-.8-.34-1.25-.84-1.34-1.49.94-1.2 1.46-2.54 1.56-4l.46-8.8zm.29-56.2l.88 16.6c0 4.3.25 10.67.76 19.12.5 8.45.76 14.16.76 17.14s-.07 6.26-.2 9.84l.2.39v2.83h.49c2.51-1.33 4.72-3.25 6.64-5.74s3.41-5.09 4.47-7.81c1.06-2.72 1.93-5.69 2.61-8.91 1.07-5.27 1.61-10.38 1.61-15.33 0-19.5-5.37-29.25-16.11-29.25-1.35-.01-2.04.37-2.11 1.12zM54.98 137.86l-3.32-.34c-.52 0-1.14.19-1.86.56-.72.37-1.57.56-2.56.56s-1.62-.33-1.88-.98l-1.66.1c-1.43 0-2.34-.34-2.73-1.03 0-.42.19-.77.56-1.05.37-.28.63-.5.76-.66h2.88l.39-.39.34-2.1-.73-21.88.49-23.34c0-4.52-.16-8.38-.49-11.57-.65-.2-1.64-.29-2.98-.29l-2.39.2c-1.27 0-1.9-.57-1.9-1.71 0-.29.3-.57.9-.83.6-.26 1.1-.39 1.49-.39 9.28 0 13.92 1.01 13.92 3.03 0 .2-.08.46-.24.78l-2.29.2c-.52-.39-1.48-.59-2.88-.59l-.49.29c.2.59.29 2.36.29 5.32l-.29 23.78.68 21.92-.1 3.08c0 1.56.1 2.49.29 2.78l-.1.24c0 .65.73.98 2.2.98l2.93-.1c1.99 0 2.98.47 2.98 1.42 0 .59-.21 1.07-.63 1.44-.44.38-.96.57-1.58.57zM75.93 74.92l-2.1-.59c-1.04 0-1.95.42-2.73 1.25s-1.37 1.86-1.76 3.1c-.81 2.41-1.22 4.3-1.22 5.66s.03 2.34.1 2.93c.06.59.19 1.27.37 2.05.18.78.3 1.33.37 1.66.06.33.25 1 .56 2.03.31 1.03.48 1.6.51 1.73l.73 1.81c.65 1.17 1.5 2.64 2.54 4.42 1.04 1.77 1.82 3.12 2.34 4.03.52.91 1.12 2.11 1.81 3.59s1.17 2.82 1.46 4.03c.81 3.09 1.22 5.87 1.22 8.33s-.1 4.43-.29 5.91-.56 3-1.1 4.57-1.2 2.93-1.98 4.1c-1.79 2.73-4.3 4.1-7.52 4.1l-.49.24c-1.95-.36-3.03-1.17-3.22-2.44l.49-.78 3.61.68c1.53 0 2.85-.59 3.96-1.78 1.11-1.19 1.94-2.69 2.49-4.52.98-3.39 1.46-6.52 1.46-9.4s-.42-5.6-1.25-8.15-1.83-4.89-3-7.01-2.34-4.23-3.52-6.35c-2.83-5.11-4.25-10.14-4.25-15.09 0-2.54.46-4.96 1.37-7.28 1.66-4.26 3.84-6.4 6.54-6.4.75 0 1.57.29 2.47.85.9.57 1.34 1.21 1.34 1.93.01.53-.43.79-1.31.79zm.68-.39v.1h.1c0-.07-.03-.1-.1-.1zM93.8 119.35l.83 19.48c0 1.2-.63 1.81-1.9 1.81l-1.42-.78c-.75-4-1.12-8.81-1.12-14.4l.44-18.6c-.42-.98-.63-1.74-.63-2.29.68-1.14 1.03-4.22 1.03-9.23 0-11.88-.2-18.34-.59-19.38.65-1.66 1.14-2.49 1.46-2.49h4.39c.81 0 1.9.37 3.25 1.1 1.35.73 2.45 1.46 3.3 2.17 1.66 1.53 2.49 5.47 2.49 11.82 0 5.63-.24 9.04-.73 10.23s-1.01 2.23-1.56 3.12c-.55.9-1.25 1.64-2.1 2.22-1.86 1.33-4.23 2.44-7.13 3.32v11.9zm-.1-40.14l.49 14.4-.39 9.42.63.98c4.88 0 7.44-5.13 7.67-15.38v-2.69s-.03-1.99-.1-2.73c-.07-.75-.22-1.58-.46-2.49-.24-.91-.58-1.64-1-2.2-1.01-1.33-2.56-2-4.64-2-.88 0-1.46.21-1.76.63-.29.44-.44 1.12-.44 2.06zM115.82 137.86l.1-2.54-.34-.39c.49-1.33.73-2.7.73-4.1l-.49-13.18.68-30.13-.39-11.96c0-1.89.96-2.83 2.88-2.83.75 0 1.29.21 1.61.63.23.07 1.19.2 2.88.39 4.1.46 6.2 1.29 6.3 2.49 0 .52-.63 1.16-1.9 1.9-3.68-1.2-6.38-1.84-8.11-1.9l-.49.59c.06.94.1 2.38.1 4.3l-.39 15.53c0 1.86.47 2.78 1.42 2.78l3.37-.2c2.54 0 3.84.6 3.91 1.81 0 .68-.17 1.29-.51 1.81s-.95.78-1.83.78-1.53-.26-1.95-.78l-3.27-.49h-.44l-.49.49v.29c.13 1.73.2 4.36.2 7.91l-.2 14.21c0 6.64.46 10.32 1.37 11.04.59.49 1.66.73 3.22.73l3.71-.2c1.95 0 2.93.44 2.93 1.32 0 1.2-1.45 1.81-4.35 1.81h-8.25c-1.25-.01-1.91-.72-2.01-2.11zM167.77 77.75l-.2-2.49c0-1.4.47-2.1 1.42-2.1.65 0 1.18.31 1.59.93.41.62.61 1.27.61 1.95v6.69l-.54.83c0 5.21-.36 15.29-1.07 30.25-.72 14.96-1.42 23.14-2.1 24.54-.16.03-.64.15-1.44.37-.8.21-1.36.32-1.68.32-.33 0-.62-.22-.88-.66-.26-.44-.46-1.02-.61-1.73s-.29-1.19-.42-1.42l.1-.29c-.42-2.77-1.29-5.93-2.61-9.5s-2.17-5.96-2.56-7.2c-.23-.29-1.12-2.78-2.69-7.47-5.99-18.59-9.77-28.63-11.33-30.13-.52 2.05-.78 4.39-.78 7.03l.2 7.86-.2 4.83c0 .75.13 3.08.39 6.98h-.29c0 11.1.23 17.24.68 18.41v8.98c.26.46.39 1.04.39 1.76 0 1.56-.62 2.34-1.86 2.34-1.4 0-2.1-1.79-2.1-5.37l.39-6.54-.63-28.76.63-17.72v-1.76c0-.88.02-1.46.07-1.76s.1-.64.15-1.05c.05-.41.12-.72.22-.95.1-.23.21-.49.34-.78.26-.59.6-1.06 1.03-1.42l.29.34.98-.24c.75.26 1.2.78 1.37 1.56 0 .07.04.25.12.56.08.31.12.48.12.51 1.14 4.75 3.53 11.38 7.18 19.87 3.65 8.5 5.86 13.96 6.64 16.38s1.48 4.99 2.1 7.69c1.37 5.99 2.86 10.37 4.49 13.13l.2-.29c1.53-14.54 2.29-32.7 2.29-54.48zm-2.1 60.98c.06 0 .1.03.1.1l-.1-.1zM191.36 74.92l-2.1-.59c-1.04 0-1.95.42-2.73 1.25s-1.37 1.86-1.76 3.1c-.81 2.41-1.22 4.3-1.22 5.66s.03 2.34.1 2.93c.06.59.19 1.27.37 2.05.18.78.3 1.33.37 1.66.06.33.25 1 .56 2.03.31 1.03.48 1.6.51 1.73l.73 1.81c.65 1.17 1.5 2.64 2.54 4.42 1.04 1.77 1.82 3.12 2.34 4.03.52.91 1.12 2.11 1.81 3.59s1.17 2.82 1.46 4.03c.81 3.09 1.22 5.87 1.22 8.33s-.1 4.43-.29 5.91-.56 3-1.1 4.57-1.2 2.93-1.98 4.1c-1.79 2.73-4.3 4.1-7.52 4.1l-.49.24c-1.95-.36-3.03-1.17-3.22-2.44l.49-.78 3.61.68c1.53 0 2.85-.59 3.96-1.78 1.11-1.19 1.94-2.69 2.49-4.52.98-3.39 1.46-6.52 1.46-9.4s-.42-5.6-1.25-8.15-1.83-4.89-3-7.01-2.34-4.23-3.52-6.35c-2.83-5.11-4.25-10.14-4.25-15.09 0-2.54.46-4.96 1.37-7.28 1.66-4.26 3.84-6.4 6.54-6.4.75 0 1.57.29 2.47.85.89.57 1.34 1.21 1.34 1.93.01.53-.43.79-1.31.79zm.68-.39v.1h.1c0-.07-.03-.1-.1-.1zM218.36 123.74l-2.64.1c-.94-.39-1.99-.59-3.12-.59-1.14 0-1.76.03-1.86.1s-.16.18-.2.34c-.03.16-.07.28-.1.34l-.2 2c-.13 1.69-.44 3.73-.93 6.1-.91 4.66-1.87 6.98-2.88 6.98-.42 0-.86-.18-1.32-.54-.46-.36-.68-.75-.68-1.17.85-2.51 1.72-6.3 2.64-11.38.91-5.08 1.48-8.24 1.71-9.5.23-1.25.65-3.78 1.27-7.59s1.03-6.32 1.22-7.52.72-3.81 1.59-7.81c.86-4 1.38-6.62 1.56-7.86.18-1.24.38-2.91.61-5.03.55-5.21.99-8.11 1.32-8.69l1.37.1c.81 0 1.42-.2 1.81-.59.42 0 .83.14 1.22.42.39.28.59.64.59 1.1 0 3.19.41 9.36 1.22 18.51.81 9.15 1.46 15.06 1.93 17.75.47 2.69 1.02 5.32 1.64 7.91.62 2.59.93 4.57.93 5.93l-.49 1.37c0 1.5.28 3.7.83 6.62.55 2.91.83 4.96.83 6.15s-.26 1.93-.78 2.22c-1.37 0-2.21-.2-2.51-.59-.31-.39-.46-1.02-.46-1.88s-.06-1.92-.17-3.17c-.11-1.25-.23-2.25-.34-3-.11-.75-.31-1.93-.59-3.54-.28-1.61-.45-2.64-.51-3.1-1.29-.32-2.79-.49-4.51-.49zm-7.03-4.93c0 .68.8 1.25 2.39 1.71 2.44.68 5.14 1.03 8.11 1.03h1.03c-.42-1.3-.63-2.8-.63-4.49v-2.29c0-4.13-.51-10.16-1.54-18.07s-1.57-13.8-1.64-17.68c-3.48 17.22-5.64 27.86-6.47 31.91s-1.25 6.68-1.25 7.88z"/></g><path fill="#FFF" d="M271.96 66.33c-2.72-.57-4.05 3.81-5.33 6.38-2.74 5.54-4.93 11.31-6.04 17.45-.51 2.82-.86 5.66-1.31 8.6 1.63 0 3.1-.1 4.55.03 1.06.09 2.11.44 3.15.76s2.03.79 3.06 1.09c1.25.37 2.3 1.04 3.22 1.97 2.5 2.51 3.87 5.59 4.28 9.13.46 3.95.62 7.93.01 11.87-.56 3.66-1.88 7.04-4.13 9.98-.23.31-.5.62-.82.81-3.01 1.81-6.06 3.52-9.75 2.75-1.63-.34-2.95-1.26-4.23-2.31-5.06-4.12-7.47-9.66-8.21-16.1-.22-1.92-.36-3.85-.53-5.77v-1.64c.11-1.96.17-3.92.35-5.87.57-6.27 1.11-12.54 1.82-18.79.35-3.07 1.43-5.97 2.62-8.82 1.57-3.76 3.14-7.51 6.03-10.46 1.47-1.5 2.99-2.89 4.93-3.75 1.24-.55 2.95-.65 4.25-.22.62.21 1.21.34 1.99.7.78.37.79.45 1.39.82.57.35.97.66 1.06 1 .05.19.11.82-.22.95-.6.26-1.47-.42-2.14-.56zm3.94 52.62c-.14-1.93-.21-3.87-.45-5.79-.17-1.4-.5-2.79-.89-4.15-.5-1.75-1.26-3.39-2.52-4.72-1.88-1.98-4.33-2.71-6.87-3.17-1.81-.33-3.62-.4-5.35.46-.51.25-.74.56-.74 1.17 0 1.67-.1 3.33-.09 5 .03 5.89.44 11.73 2.01 17.43.77 2.8 1.89 5.41 3.99 7.45.85.83 1.85 1.25 3.05 1.1 2.44-.29 4.17-1.57 5.3-3.83 1.72-3.44 2.42-7.1 2.56-10.95zM284.53 71.43c-2.96-2.58 4.26-5 7.83-5.4.25-.03.5-.11.75-.16h1.94c.98.44 1.99.7 3.04.32.82-.29 1.47-.06 2.11.47.4.33.84.72 1.32.82 1.09.23 1.81.85 2.41 1.73.38.55.83 1.08 1.33 1.53 2.26 2.04 3.33 4.71 3.68 7.6.24 1.95.02 3.97-.15 5.95-.27 3.2-.87 6.35-2.33 9.24-.93 1.84-2.07 3.58-3.19 5.48.58.52 1.3 1.13 1.96 1.78.83.82 1.81 1.58 2.36 2.56 1.13 2.01 2.04 4.14 3.01 6.24.23.5.38 1.05.47 1.59.33 1.95.62 3.91.93 5.87v4.94c-.2 1.39-.36 2.79-.6 4.17-.47 2.65-1.93 4.81-3.51 6.91-.85 1.12-1.52 2.4-2.48 3.41-1.64 1.72-3.49 3.12-6.04 3.36-1.77.17-3.51.77-5.28.88-1.46.09-2.98-.15-4.42-.46-2.55-.55-4.84-1.75-5.21-3.97-.06-.37.17-1.32.53-1.41.42-.1 1.08.77 1.28 1.15 1.13 2.08 2.98 2.94 5.2 2.93 1.07 0 2.14-.48 3.2-.75.22-.06.44-.22.65-.21 2.63.14 4.07-1.52 5.21-3.54 1.31-2.32 1.8-4.89 2.07-7.5.5-4.95.25-9.87-1.03-14.69-.8-3-1.86-5.95-4.34-7.99-1.34-1.11-2.95-1.97-4.56-2.64-.98-.4-2.2-.33-3.3-.25-1.09.08-1.49-.47-1.67-1.48-.19-1.03.68-1.07 1.28-1.16 2.32-.35 4.26-1.42 6.05-2.86 1.83-1.47 2.79-3.44 3.38-5.64.9-3.39 1.56-6.82 1.42-10.34-.13-3.43-1.07-6.6-3.35-9.25-.58-.68-1.31-1.28-2.07-1.75-1.3-.81-2.66-.71-4.02-.02-.8.41-1.65.72-2.49 1.05-.76.3-.93.71-1.54 1.09-.48.31-1.4.77-1.83.4z"/><g fill="#FFF"><path d="M12.42 168.16c-.46-.32-1-.48-1.63-.48-.54 0-1 .1-1.38.3-.38.2-.7.47-.94.81-.25.34-.43.73-.55 1.17s-.18.89-.18 1.36c0 .51.06 1 .18 1.46.12.46.3.86.55 1.2.25.34.56.61.95.81.39.2.85.3 1.39.3.39 0 .75-.06 1.05-.2.31-.13.57-.31.79-.54.22-.23.4-.51.52-.83s.2-.66.23-1.03h1.2c-.12 1.13-.51 2.02-1.17 2.65s-1.57.94-2.72.94c-.7 0-1.31-.12-1.83-.36s-.95-.57-1.3-.99c-.34-.42-.6-.92-.77-1.49-.17-.57-.26-1.18-.26-1.84s.09-1.27.28-1.85c.19-.58.46-1.08.81-1.5.36-.43.8-.77 1.34-1.01.53-.25 1.14-.37 1.83-.37.47 0 .92.06 1.34.19s.79.31 1.12.55c.33.24.6.55.82.91.22.37.36.79.43 1.27h-1.2c-.15-.63-.44-1.11-.9-1.43zM26.15 166.89l3.52 9h-1.32l-.98-2.71h-3.81l-1.01 2.71h-1.22l3.5-9h1.32zm.83 5.28l-1.5-4.2h-.03l-1.52 4.2h3.05zM42.75 166.89v1.01h-4.71v2.86h4.13v1.01h-4.13v4.12h-1.2v-9h5.91zM56.29 166.89v1.01h-4.71v2.86h4.13v1.01h-4.13v4.12h-1.2v-9h5.91zM70.12 166.89v1.01H65.1v2.86h4.67v1.01H65.1v3.11h5.05v1.01H63.9v-9h6.22zM76.95 167.9v-1.01h7.19v1.01h-3v7.99h-1.2v-7.99h-2.99zM90.48 167.9v-1.01h7.19v1.01h-3v7.99h-1.2v-7.99h-2.99zM111.18 166.89v1.01h-5.01v2.86h4.67v1.01h-4.67v3.11h5.05v1.01h-6.25v-9h6.21zM123.21 166.89c.86 0 1.53.21 2.01.63.48.42.72 1 .72 1.73 0 .55-.12 1.03-.37 1.44-.25.41-.64.69-1.19.84v.03c.26.05.47.13.64.25.16.12.29.26.39.42s.17.35.21.55c.05.2.08.41.11.63.02.22.03.44.04.67.01.23.03.45.06.67.03.22.08.43.15.62.06.2.16.37.28.52h-1.34c-.08-.09-.14-.22-.17-.38s-.05-.34-.06-.54l-.03-.64c-.01-.23-.03-.45-.08-.67-.03-.22-.08-.43-.13-.62-.05-.2-.13-.37-.24-.52-.11-.15-.25-.26-.43-.35-.18-.09-.41-.13-.71-.13h-2.92v3.84h-1.2v-9h4.26zm.25 4.08c.25-.04.47-.12.66-.25.19-.12.34-.29.45-.49.11-.21.17-.47.17-.8 0-.45-.13-.82-.38-1.11-.25-.29-.66-.43-1.22-.43h-2.97v3.14h2.5c.27.01.54-.02.79-.06zM135.15 166.89v9h-1.2v-9h1.2zM147.23 166.89l3.52 9h-1.32l-.98-2.71h-3.81l-1.01 2.71h-1.22l3.5-9h1.32zm.83 5.28l-1.5-4.2h-.02l-1.53 4.2h3.05zM160.58 171.37c0 .39-.13.72-.38.98-.26.26-.58.39-.98.39s-.72-.13-.98-.39-.38-.58-.38-.98.13-.72.38-.97c.26-.25.58-.38.98-.38s.72.13.98.38c.25.25.38.58.38.97zM172.58 166.89c.91 0 1.59.23 2.06.7s.7 1.12.7 1.96-.23 1.5-.7 1.97-1.15.7-2.06.69h-2.75v3.68h-1.2v-9h3.95zm-.4 4.31c.68.01 1.18-.13 1.49-.42.31-.29.47-.7.47-1.24s-.16-.95-.47-1.23c-.32-.28-.81-.42-1.49-.42h-2.34v3.3h2.34zM185.94 166.89l3.52 9h-1.32l-.98-2.71h-3.81l-1.01 2.71h-1.22l3.5-9h1.32zm.83 5.28l-1.5-4.2h-.02l-1.53 4.2h3.05zM201.14 168.12c-.4-.29-.91-.43-1.53-.43-.25 0-.5.02-.74.08s-.46.13-.65.25-.34.28-.45.47-.17.44-.17.74c0 .28.08.5.25.67.16.17.38.31.65.42.27.11.58.2.93.27.34.07.69.15 1.05.23s.71.18 1.05.3c.34.11.65.27.93.46.27.19.49.44.66.73s.25.66.25 1.11c0 .48-.11.89-.32 1.23-.21.34-.49.62-.83.83-.34.21-.71.37-1.13.47-.42.1-.83.14-1.24.14-.5 0-.98-.06-1.43-.19s-.84-.32-1.18-.57c-.34-.26-.61-.58-.81-.98-.2-.4-.3-.87-.3-1.42h1.13c0 .38.07.7.22.98.15.27.34.5.58.67.24.18.52.31.84.39s.65.13.98.13c.27 0 .54-.03.81-.08s.52-.14.74-.26c.22-.12.4-.29.53-.5.13-.21.2-.48.2-.81 0-.31-.08-.56-.25-.76s-.38-.35-.66-.47-.58-.22-.93-.3c-.34-.08-.7-.15-1.05-.23-.36-.08-.71-.17-1.05-.28-.34-.1-.65-.24-.93-.42-.27-.17-.49-.39-.66-.67-.16-.27-.25-.62-.25-1.03 0-.45.09-.85.28-1.18.18-.33.43-.61.74-.82s.66-.37 1.05-.48c.39-.11.79-.16 1.2-.16.46 0 .89.05 1.29.16s.74.28 1.04.52c.3.24.53.53.71.89.17.36.27.78.28 1.28h-1.13c-.07-.62-.3-1.09-.7-1.38zM210.15 167.9v-1.01h7.19v1.01h-3v7.99h-1.2v-7.99h-2.99zM225.88 166.89v9h-1.2v-9h1.2zM239.64 168.16c-.46-.32-1-.48-1.63-.48-.54 0-1 .1-1.38.3-.38.2-.7.47-.95.81-.25.34-.43.73-.55 1.17-.12.44-.18.89-.18 1.36 0 .51.06 1 .18 1.46.12.46.3.86.55 1.2.25.34.57.61.95.81.39.2.85.3 1.39.3.39 0 .75-.06 1.05-.2.31-.13.57-.31.79-.54.22-.23.4-.51.52-.83s.2-.66.23-1.03h1.2c-.12 1.13-.51 2.02-1.17 2.65-.66.63-1.57.94-2.72.94-.7 0-1.31-.12-1.83-.36s-.95-.57-1.3-.99c-.34-.42-.6-.92-.78-1.49-.17-.57-.26-1.18-.26-1.84s.09-1.27.28-1.85c.18-.58.46-1.08.81-1.5.36-.43.8-.77 1.34-1.01.53-.25 1.14-.37 1.83-.37.47 0 .92.06 1.33.19s.79.31 1.12.55c.33.24.6.55.82.91.22.37.36.79.43 1.27h-1.2c-.12-.63-.42-1.11-.87-1.43zM255.03 168.16c-.46-.32-1-.48-1.63-.48-.54 0-1 .1-1.38.3-.38.2-.7.47-.95.81-.25.34-.43.73-.55 1.17-.12.44-.18.89-.18 1.36 0 .51.06 1 .18 1.46.12.46.3.86.55 1.2.25.34.57.61.95.81.39.2.85.3 1.39.3.39 0 .75-.06 1.05-.2.31-.13.57-.31.79-.54.22-.23.4-.51.52-.83s.2-.66.23-1.03h1.2c-.12 1.13-.51 2.02-1.17 2.65-.66.63-1.57.94-2.72.94-.7 0-1.31-.12-1.83-.36s-.95-.57-1.3-.99c-.34-.42-.6-.92-.78-1.49-.17-.57-.26-1.18-.26-1.84s.09-1.27.28-1.85c.18-.58.46-1.08.81-1.5.36-.43.8-.77 1.34-1.01.53-.25 1.14-.37 1.83-.37.47 0 .92.06 1.33.19s.79.31 1.12.55c.33.24.6.55.82.91.22.37.36.79.43 1.27h-1.2c-.11-.63-.41-1.11-.87-1.43zM271.2 166.89v1.01h-5.01v2.86h4.67v1.01h-4.67v3.11h5.05v1.01h-6.25v-9h6.21zM283.22 166.89c.86 0 1.53.21 2.01.63.48.42.72 1 .72 1.73 0 .55-.12 1.03-.37 1.44-.25.41-.64.69-1.19.84v.03c.26.05.47.13.64.25.16.12.29.26.39.42s.17.35.21.55c.05.2.08.41.11.63.02.22.03.44.04.67.01.23.03.45.06.67.03.22.08.43.15.62.06.2.16.37.28.52h-1.34c-.08-.09-.14-.22-.17-.38s-.05-.34-.06-.54l-.03-.64c-.01-.23-.03-.45-.08-.67-.03-.22-.08-.43-.13-.62-.05-.2-.13-.37-.24-.52-.11-.15-.25-.26-.43-.35-.18-.09-.41-.13-.71-.13h-2.92v3.84h-1.2v-9h4.26zm.26 4.08c.25-.04.47-.12.66-.25.19-.12.34-.29.45-.49.11-.21.17-.47.17-.8 0-.45-.13-.82-.38-1.11-.25-.29-.66-.43-1.22-.43h-2.97v3.14h2.5c.27.01.53-.02.79-.06zM295.17 166.89v9h-1.2v-9h1.2zM307.25 166.89l3.52 9h-1.32l-.98-2.71h-3.81l-1.01 2.71h-1.22l3.5-9h1.32zm.83 5.28l-1.5-4.2h-.02l-1.53 4.2h3.05z"/></g><path fill="#FFF" d="M223.79 158.43c2.89 0 5.28-.06 7.67.01 8.16.25 16.3-.2 24.45-.3 1.04-.01 2.09.08 3.13.04 2.97-.1 5.94-.3 8.92-.36 3.27-.07 6.55-.06 9.83-.04 6.85.04 13.69.15 20.54.15 1.85 0 3.69-.35 5.55-.5 2.48-.2 4.98-.36 7.47-.52.84-.06 1.55.04 1.7.68.14.62-.33 1.23-1.19 1.36-.6.09-1.25.09-1.87.07-10.9-.29-21.8-.3-32.69-.1-8.45.16-16.91.37-25.33.83-8.51.46-17.01.52-25.53.44-2.72-.03-5.45.11-8.18.12-10.83.03-21.66-.01-32.48-.5-4.38-.2-8.79-.07-13.19-.06-4.19.01-8.38.03-12.57.09-2.86.05-5.72.21-8.58.27-4.47.09-8.93.17-13.4.21-9.63.09-19.27.23-28.9.23-8.73 0-17.46-.18-26.19-.21-4.81-.02-9.62.1-14.43.15-3.08.03-6.15.02-9.23.09-1.88.04-3.75.23-5.63.32-1.53.07-3.07.21-4.59.13-6.06-.33-12.13-.49-18.22-.45-2.3.02-4.6-.19-6.9-.19-2.23-.01-4.46.15-6.68.15-3.83 0-7.67-.05-11.51-.09-.74-.01-1.43-.13-1.05-.87 2.32-.09 4.67-.24 7.03-.27 4.88-.06 9.76-.08 14.64-.09 5.16-.01 10.32.04 15.48.01 3.84-.02 7.68-.19 11.52-.19 4.67.01 9.33.18 14 .18 3.41 0 6.81-.11 10.21-.25 8.23-.33 16.45-.33 24.69-.04 2.77.1 5.56-.11 8.35-.14 3.77-.04 7.55-.06 11.32-.07 5.31-.02 10.62-.02 15.94-.02 5.16 0 10.32.03 15.48-.02 2.44-.02 4.87-.21 7.3-.33.77-.04 1.53-.1 2.3-.11 3.35-.07 6.71-.2 10.06-.17 3.06.03 6.11.26 9.17.36 4.53.14 9.07.24 13.61.33 3.83.07 7.67.21 11.5.13 4.38-.09 8.75-.37 13.12-.6l3.36.14zM93.85 185.53c-2.89 0-5.28.06-7.67-.01-8.16-.25-16.3.2-24.45.3-1.04.01-2.09-.08-3.13-.04-2.97.1-5.94.3-8.92.36-3.27.07-6.55.06-9.83.04-6.85-.04-13.69-.15-20.54-.15-1.85 0-3.69.35-5.55.5-2.48.2-4.98.36-7.47.52-.84.06-1.55-.04-1.7-.68-.14-.62.33-1.23 1.19-1.36.6-.09 1.25-.09 1.87-.07 10.9.29 21.8.3 32.69.1 8.45-.16 16.91-.37 25.33-.83 8.51-.46 17.01-.52 25.53-.44 2.72.03 5.45-.11 8.18-.12 10.83-.03 21.66.01 32.48.5 4.38.2 8.79.07 13.19.06 4.19-.01 8.38-.03 12.57-.09 2.86-.05 5.72-.21 8.58-.27 4.47-.09 8.93-.17 13.4-.21 9.63-.09 19.27-.23 28.9-.23 8.73 0 17.46.18 26.19.21 4.81.02 9.62-.1 14.43-.15 3.08-.03 6.15-.02 9.23-.09 1.88-.04 3.75-.23 5.63-.32 1.53-.07 3.07-.21 4.59-.13 6.06.33 12.13.49 18.22.45 2.3-.02 4.6.19 6.9.19 2.23.01 4.46-.15 6.68-.15 3.83 0 7.67.05 11.51.09.74.01 1.43.13 1.05.87-2.32.09-4.67.24-7.03.27-4.88.06-9.76.08-14.64.09-5.16.01-10.32-.04-15.48-.01-3.84.02-7.68.19-11.52.19-4.67-.01-9.33-.18-14-.18-3.41 0-6.81.11-10.21.25-8.23.33-16.45.33-24.69.04-2.77-.1-5.56.11-8.35.14-3.77.04-7.55.06-11.32.07-5.31.02-10.62.02-15.94.02-5.16 0-10.32-.03-15.48.02-2.44.02-4.87.21-7.3.33-.77.04-1.53.1-2.3.11-3.35.07-6.71.2-10.06.17-3.06-.03-6.11-.26-9.17-.36-4.53-.14-9.07-.24-13.61-.33-3.83-.07-7.67-.21-11.5-.13-4.38.09-8.75.37-13.12.6l-3.36-.14z"/><g fill="#FFF"><path d="M109.09 44.83c-7.95.75-15.92 1.07-23.92.79-2.3-.08-4.62-.29-6.9-.64-1.38-.21-2.7-.79-4.04-1.22-1.29-.41-2.56-.89-3.85-1.28-2.22-.68-4.53-1.09-6.64-2.01-2.29-1-4.74-1.95-6.13-4.3-.49-.81-.91-1.66-1.32-2.52-.29-.61-.49-1.26-.72-1.85-1.01-.35-2.16-.13-2.87-1.26.87-.86 1.01-2.22 2.17-3.04.47-.34.46-1.34.69-2.03.25-.76-.1-1.26-.58-1.81-.44-.5-.68-1.16-1.01-1.75-.3-.53-.6-1.07-.89-1.6.71-1.89 2.54-2.06 4.16-2.72.28-1.33.97-2.6.56-4.06-.18-.65.12-1.14.76-1.32 1.21-.33 1.79-1.09 1.67-2.21 2.16-1.67 4.17-3.31 6.28-4.83C69.81 2.8 73.38 1.16 77.5.58c3.23-.45 6.4-.41 9.62-.2 3.33.2 6.67.08 10.01.17 2.26.06 4.52.24 6.78.37 5.33.31 10.53 1.47 15.79 2.23 4.03.57 8.03 1.29 12.03 2.01 2.12.38 4.19.95 6.31 1.35 4.27.81 8.59 1.44 12.83 2.37 4.63 1.01 9.33 1.77 13.81 3.45 2.68 1.01 5.57 1.48 8.34 2.27 4.72 1.35 9.4 2.87 14.16 4.1 2.51.65 5.12.91 7.69 1.23.74.1 1.56-.33 2.3-.21 1.95.3 3.89.68 5.8 1.18 3 .79 5.98 1.63 8.67 3.28.62.38 1.51.34 2.28.43 1.34.15 2.73.06 4.01.4 2.39.64 4.82.47 7.24.68 2.59.23 5.17.54 7.76.78 4.27.4 8.51.87 12.84.13 2.35-.41 4.82-.14 7.23-.15 1.46-.01 2.84-.05 4.23-.84 1.86-1.06 4.22-.45 5.76 1.13.43.43.87.86 1.26 1.34 1.3 1.62.18 4.75-1.86 5.19-2.02.44-3.97.5-5.93-.51-1.06-.55-2.37-.62-3.57-.91-.38-.09-.76-.2-1.14-.29-.64-.15-1.3-.26-1.93-.41-.58-.13-1.15-.29-1.73-.45-.16-.04-.3-.18-.46-.19-2.01-.06-4.01-.12-6.02-.15-1.25-.02-2.5.1-3.73 0-2.35-.18-4.69-.49-7.03-.73-1.94-.19-3.89-.4-5.83-.52-.66-.04-1.33.21-2 .26-2.19.14-4.39.22-6.58.4-.5.04-.97.37-1.73.69.07.04-.23-.03-.42-.22-.74-.76-1.51-.7-2.47-.37-1.71.57-3.48.95-5.23 1.4-.6.16-1.19.34-1.8.48-.87.2-1.75.47-2.64.54-1.92.15-3.84.24-5.76.27-1 .02-2.02-.34-3.01-.24-3.14.33-6.27.79-9.41 1.2-3.54.47-7.08.9-10.61 1.43-3.18.47-6.36 1.01-9.53 1.6-3.88.72-7.77 1.49-11.63 2.34-3.59.79-7.11 1.86-10.72 2.53-2.94.55-5.94.75-8.92 1.05-7.81.82-15.63 1.61-23.47 2.36zm-24.89-.21c6.96.43 13.92.07 20.88-.22l2.11-.09c0-.09-.01-.18-.01-.27-10.62-.38-21.24-.75-31.86-1.13.19.37.42.58.66.61 2.74.39 5.46.93 8.22 1.1zm17.33-1.55c6.35.3 12.69-.05 18.96-1.05 6.13-.97 12.21-2.33 18.31-3.54 4.14-.82 8.27-1.67 12.4-2.5.01-.05.01-.11.01-.16-.7 0-1.39-.02-2.09 0-3.79.1-7.58.24-11.37.31-2.6.04-5.2-.05-7.8-.03-5.66.03-11.33.08-16.99.17-2.31.04-4.63.13-6.93.35-1.22.11-2.4.75-3.61.83-8.48.57-16.94 1.02-25.39-.56-4.25-.8-8.4-1.73-12.14-4.03-1.34-.82-2.85-.79-4.55-.64 1.67 2.53 3.15 4.9 5.81 6.24 1.11.55 2.17 1.22 3.21 1.9 1.75 1.14 3.56 1.83 5.72 1.78 3.05-.09 6.11-.05 9.16.08 5.77.21 11.53.57 17.29.85zm20.73-.46c.42.19.81.24 1.2.19 3.47-.43 6.95-.86 10.43-1.31 2.97-.37 5.97-.6 8.91-1.17 3.26-.63 6.46-1.58 9.7-2.37 1.59-.4 3.18-.83 4.79-1.12 3.04-.56 6.1-1.03 9.15-1.54-.02-.06-.03-.12-.06-.18-1.56.14-3.12.33-4.69.42-4.98.29-9.84 1.4-14.73 2.23-4.84.83-9.64 1.94-14.46 2.9-2.31.46-4.64.87-6.97 1.3-1.09.21-2.18.43-3.27.65zm-62.05-5.16c2.44 1.5 4.91 2.94 7.94 3.09-.81-.47-1.66-.92-2.45-1.42-2.35-1.49-4.55-3.15-5.95-5.64-.9-1.61-.9-1.61-2.67-1.37.12 1.91 1.42 4.29 3.13 5.34zm21.07-.87c6.04.73 12.08.72 18.14.14.94-.09 1.89-.13 2.85-.2-.6-.3-1.2-.3-1.79-.31-2.09-.03-4.2.04-6.28-.12-3.21-.24-6.42-.65-9.62-1-3.37-.37-6.75-.68-10.01-1.74-1.07-.35-2.15-.81-3.25-.92-1.62-.16-3.28-.05-4.92-.06l-.09.33c1.39.57 2.75 1.25 4.18 1.72 3.5 1.14 7.13 1.7 10.79 2.16zm17.63-1.27c4.97.12 9.94.28 14.87-1.16-1.78-.19-3.56-.48-5.35-.52-4.18-.11-8.36.01-12.53-.14-4.07-.14-8.13-.55-12.2-.73-2.56-.12-5.14-.05-7.7-.06 7.56 1.67 15.2 2.42 22.91 2.61zm16.28.06l6.16.03v-.28l-6.13-.03c-.02.09-.03.18-.03.28zm19.59-.1c2.53.01 5.06.18 7.58.01 4.58-.31 9.15-.45 13.73-.35.85.02 1.7-.02 2.55-.08 2.82-.21 5.63-.44 8.45-.66 1.97-.16 3.95-.31 5.92-.49 2.76-.26 5.51-.51 8.27-.83 2.45-.29 4.89-.67 7.33-1-.23-.24-.44-.3-.64-.3-8.1.08-16.2.16-24.29.25-.51 0-1.01.1-1.52.18-3.18.49-6.35 1.11-9.56 1.45-4.21.45-8.45.66-12.67 1.03-1.72.15-3.44.46-5.16.7 0 .02 0 .06.01.09zm-9.92-.46c1.91.19 3.73.4 5.58.09 1.22-.19 2.45-.36 3.68-.51 2.31-.3 4.64-.59 6.96-.87.04 0 .07.01.11.01.01-.01.02-.01.03-.03 4.33-.35 8.66-.66 12.98-1.08 1.8-.17 3.56-.7 5.35-.87 2.92-.28 5.86-.45 8.8-.59 2.67-.13 5.35-.16 8.02-.23-.6-.21-1.2-.34-1.81-.4-2.86-.31-5.67-1.21-8.59-.85-2.47.31-4.94.63-7.4 1.01-5.65.86-11.29 1.75-16.93 2.65-.16.02-.28.23-.42.36-.01.01-.04.01-.05.01-.03.01-.06.01-.09.01-.69-.07-1.38-.18-2.07-.16-1.47.05-2.94.15-4.41.28-3.2.27-6.39.57-9.59.86-.01.01-.02.08-.15.31zM113 33.08c2.96.14 5.86-.22 8.8-.26 3.79-.07 7.57-.38 11.35-.39 4.87-.02 9.73-.15 14.54-1.01 4.23-.75 8.48-1.36 12.72-2.04.15-.02.29-.13.7-.33-2.13-.12-3.93-.21-5.72-.33-3.33-.22-6.67-.39-9.98-.71-4.96-.47-9.9-1.02-14.85-1.59-3.32-.38-6.62-.84-9.93-1.27-2.58-.34-5.15-.72-7.73-1.04-4.66-.6-9.31-1.21-13.98-1.75-2.35-.27-4.66-.8-7.08-.51-5.39.65-10.8 1.12-16.2 1.7-1.89.2-3.77.48-5.66.74-.01.16-.02.31-.02.48 2.81.58 5.61 1.19 8.42 1.75 3.88.77 7.77 1.51 11.66 2.26 2.99.58 6 1.09 8.97 1.74 4.63.99 9.18 2.33 13.99 2.56zm-10.46-.24c.57.02 1.16.01 1.73.02-2.06-.71-4.11-1.28-6.2-1.69-5.65-1.1-11.34-2.09-17-3.2-3.72-.72-7.46-1.39-11.1-2.43-3.24-.92-6.09.37-9.1.76-.01.16-.02.32-.02.48.64.34 1.26.72 1.92 1.02 2.45 1.15 4.72 2.67 7.42 3.32 2.34.57 4.71.51 7.08.6 5.55.22 11.08.54 16.63.8 2.86.14 5.75.22 8.64.32zm153.68-3.95c-.01 2.47 1.68 3.94 4.06 3.59.5-.07 1.01-.11 1.51-.23 1.75-.41 2.32-2.05 1.22-3.52-1.16-1.55-3.97-2.3-5.69-1.48-.71.34-1.23.82-1.1 1.64zM60.89 31.25c.49.02.98.01 1.72.02-1.02-1.42-1.87-2.66-2.77-3.85-.34-.44-.85-.51-1.38-.01.33 1.22.66 2.46 1 3.74.55.04.99.09 1.43.1zm.83-2.93c1.43 2.21 2.95 3.65 5.6 2.76-1.87-.77-3.42-2.13-5.6-2.76zm-5.22 2.53c.57.1 1.08.19 1.67.29-.18-1.27-.35-2.4-.53-3.63-.56.2-.96.34-1.36.48.07.99.14 1.88.22 2.86zm140.11.44c5.24.59 10.1-.95 14.99-2.19.02-1.06-.53-1.12-.9-.63-.31.41-.59.57-1.03.65l-11.66 1.92c-.47.08-.94.17-1.4.25zm-142.49-.82c.49.09.8.15 1.45.27-.29-.68-.46-1.05-.74-1.68-.29.58-.47.93-.71 1.41zm200.48.7c.23-.01.4.02.45-.03.81-1.05-.31-2.29.61-3.58-1.62.01-2.85-.5-4.24.05l.73.94c.16-.34.27-.56.45-.94.25.41.43.84.52.83 1.46-.29 1.14 1.01 1.47 1.67.14.27.01.69.01 1.06zm-71.89-.79c3.82.5 7.57-.29 11.39-.29.15-.83 0-1.17-.59-1.27-2.1-.38-4.2-.81-6.3-1.17-.66-.11-1.35-.09-2.03-.04-3.55.28-7.09.58-10.64.89-1.04.09-2.07.21-3.12.32v.33c3.77.41 7.54.75 11.29 1.23zm68.05-.11c.15-.06.3-.1.44-.16.27-1.15-.38-1.93-1.14-2.62-.82 0-1.55-.04-2.28 0-.72.04-1.52-.28-2.26.34.55.36 1.11.58 1.43.98.42.53.76.96 1.53.65 0-.35 0-.72.01-1.16.54.03.97.06 1.41.09.3.66.58 1.27.86 1.88zm-55.42-.74c.14.43.22.69.37 1.16 4.32-.71 8.61-1.42 12.91-2.13l-.03-.22-6.43-.03-6.48-.03-.03.31c.76.26 1.54.51 2.3.77l-.09.32c-.79-.06-1.59-.1-2.52-.15zm-33.17-1.23c1.74.06 3.5.11 5.24-.02 2.59-.2 5.17-.63 7.76-.83 2.65-.21 5.31-.28 7.96-.41 0-.08.01-.16.01-.25-.2-.08-.39-.19-.59-.23-5.13-.85-10.25-1.83-15.41-2.49-4.2-.53-8.4-1.31-12.68-1.21-1.53.04-3.06-.06-4.58-.12-7.07-.32-14.14-.68-21.21-.96-3.17-.12-6.35-.04-9.52-.17-3.44-.14-6.88-.45-10.32-.61-2.09-.09-4.19-.08-6.29-.04-1.27.03-2.54.2-3.82.3 1.81.48 3.59.81 5.39 1.02 3.59.42 7.2.75 10.8 1.2 7.36.9 14.71 1.87 22.07 2.78 1.91.24 3.84.33 5.76.5 4.33.4 8.66.84 13 1.2 2.12.18 4.28.28 6.43.34zm70.93-.74c.06 1.21.06 1.21 1.7 1.23-.03-1.3-.78-1.37-1.7-1.23zm-1.46 1.09c.16-.07.32-.14.48-.2-.13-.38-.24-.77-.41-1.13-.01-.03-.36.09-.7.17.26.47.45.81.63 1.16zm9.51-.24c.46.36.8.64 1.26.99.12-.5.22-.9.33-1.3-1.01-.01-1.9-.01-3.16-.02.41.56.62.86.96 1.35.24-.4.41-.68.61-1.02zm-20.36 0c.09-.02.18-.05.26-.07-.08-.34-.17-.68-.26-1.02-.1.03-.2.06-.31.08.11.34.21.68.31 1.01zm-6.89-.16c.06.12.18.21.35.41.64-.92.32-2.47 2.07-2.54.1.14.27.31.34.51.28.66.53 1.34.8 2.01 1.09-.53 1.08-.6-.04-2.75-.35-.03-.71-.05-1.08-.07-.51-.03-1.03-.08-1.52-.21-1.04-.25-1.32.85-2.11 1.04-.14.03-.09.87-.13 1.4.49-.15.8-.25 1.12-.35.08.24.12.41.2.55zm15.13-1.12c.24.61-.01 1.55 1.3 1.13-.29-.66-.39-1.3-1.3-1.13zm-2.55 1.09c.52.04 1 .08 1.63.12-.16-1.49-.21-1.53-2.2-1.53.2.48.38.92.57 1.41zm-11.01.63c1.01-.46.95-1.03.27-1.86-.11.74-.19 1.3-.27 1.86zm8.45-.77c.43 0 .74 0 1.26.01-.24-.92-.42-1.63-1.6-1.36.12.47.23.92.34 1.35zm19.93 1.48c.22-.79.55-1.11 1.45-1.52-.57-.52-1.18-.19-1.98-.24.19.66.33 1.1.53 1.76zm-7.52-1.67c.49.44.86.78 1.39 1.26-.04-.54-.07-.9-.1-1.32-.82 0-1.43-.01-2.13-.01.13.45.22.79.38 1.39.2-.57.3-.86.46-1.32zm-17.03.67c.37-1.16.37-1.16-.5-2.17.21.87.35 1.52.5 2.17zm2.95.02c.8-1.09.69-1.44-.69-2.04.26.76.46 1.35.69 2.04zm-30.88-1.26c.78.49 1.39.5 1.99.01-.59 0-1.17 0-1.99-.01zm5.07.09l11.96.06c0-.09.01-.19.01-.28-4.28-.41-8.56-.81-12.92-1.22.4.61.71 1.07.95 1.44zM56.2 26.96c1.25-.64 1.25-.64.49-1.47-.14.44-.27.81-.49 1.47zm153.91-.39c.02-.11.04-.23.07-.34-4.66-1.17-9.32-2.38-14.27-3.08-.15.64-.29 1.23-.46 1.98 5.03.5 9.84.97 14.66 1.44zm-25.65-.3c1.61.31 3.14.21 4.72.05-6.92-1.91-13.84-3.79-21.15-2.98.21.05.4.1.61.14 5.27.92 10.56 1.78 15.82 2.79zM58.18 24.08c.02.81-.09 1.43.97 1.25-.28-.35-.56-.71-.97-1.25zm2.06 1.4c1.87-.39 3.59-.75 5.66-1.18-2.33-1.4-4.36-2.6-6.44-3.85-.64 1.85.22 3.34.78 5.03zm151.13.1c-.09-.27-.09-.42-.16-.47-.22-.17-.46-.31-.71-.44-3.49-1.81-7.29-2.66-11.05-3.62-.7-.18-1.45-.28-2.16-.27-.8.02-1.22.5-1.01 1.4 5.1 1.16 10.05 2.27 15.09 3.4zm-28.97-1.92c3.37.57 6.4 1.86 9.93 2.22-2.15-1.4-7.58-2.58-9.93-2.22zm8.91.75c.86.23 1.58 1.03 3.02.48-1.21-.36-2.08-.62-2.95-.87-.03.13-.05.26-.07.39zM66.4 23.43c.91.52 1.88.68 2.92.17.49-.25 1.09-.3 1.65-.37 3.88-.47 7.75-.95 11.63-1.37 2.51-.28 5.03-.48 7.55-.71.01-.08.02-.16.02-.24-2.88-.48-5.76-.95-8.64-1.46-4.22-.76-8.44-1.56-12.66-2.33-.44-.08-.91-.11-1.35-.06-2.08.26-4.15.55-6.23.84-.54.08-1.08.14-1.65.22-.08.96.3 1.47.91 1.84 1.96 1.17 3.89 2.36 5.85 3.47zm-10.65-.15l.41-.03c.32-1.45.64-2.9.97-4.42-1.46-.04-2.36.5-3.09 1.54.59 1 1.15 1.96 1.71 2.91zm138.94.19c.01-.15.03-.29.05-.44-.47-.2-.96-.41-1.68-.73.67-.17 1.04-.26 1.59-.39-3.7-1.01-7.2-1.91-10.67-2.91-4.18-1.19-8.34-2.48-12.51-3.69-2.33-.68-4.71-1.21-7-1.98-2.55-.86-5.15-1.23-7.82-1.35-1.81-.09-3.62-.1-5.42-.31-3.48-.39-6.95-.91-10.42-1.36-.52-.07-1.06-.08-1.58-.13.18.32.38.39.59.43 5.09 1.06 10.26 1.81 15.24 3.24 5.64 1.62 11.17 3.64 16.93 4.9 2.59.57 5.09 1.43 7.77 1.69 4.32.42 8.65.99 12.77 2.54.67.27 1.43.34 2.16.49zm-12.16-1.87c1.96 1 3.97 1.67 6.17 1.07-2.05-.37-4.11-.72-6.17-1.07zm-7.32.24c1.94.62 3.87 1.03 6 .76-3.18-1.69-15.89-4.67-17.62-4.27 3.75 1.13 7.71 2.26 11.62 3.51zm-12.58.38c3.31.04 6.62.04 10.21.06-.38-.28-.49-.41-.64-.46-3.26-.92-6.5-1.9-9.79-2.73-4.77-1.2-9.54-2.43-14.36-3.41-4.76-.97-9.57-1.7-14.38-2.43-3.86-.58-7.73-1.1-11.61-1.46-4.68-.42-9.37-.71-14.06-.94-7.35-.35-14.71-.7-22.06-.88-5.77-.14-11.53-.12-17.29.5-2.9.31-4.85 1.85-7.12 3.89.94.38 1.54.75 2.17.86 2.95.47 5.89 1.13 8.92.78 1.29-.15 2.6-.23 3.9-.25 3-.06 6-.02 9-.09 9.22-.23 18.45-.61 27.66.27 3.67.35 7.33.67 10.97 1.19 5.65.81 11.27 1.82 16.91 2.66 3.36.5 6.76.73 10.1 1.27 3.81.61 7.61 1.12 11.47 1.17zm-19.64-.77c.82.03 1.65.01 2.46.01-4.47-.86-8.94-1.61-13.42-2.24-5.88-.83-11.77-1.61-17.66-2.35-6.65-.84-13.34-.74-20.02-.64-5.31.08-10.63.26-15.95.36-1.81.04-3.62-.01-5.42-.02V17c.15.07.29.17.45.19l9.18 1.59c3.06.53 6.12 1.1 9.18 1.59 1.11.18 2.25.27 3.38.22 2.94-.13 5.86-.46 8.8-.54 5.21-.14 10.4.21 15.6.59 4.79.36 9.62.28 14.43.43 3 .1 5.99.27 8.99.38zm-82.92-4.36c1.94-.17 3.65-.32 5.78-.51-1.85-.48-3.32-.87-4.85-1.27-.27.54-.54 1.05-.93 1.78zm95.2-.8c1.9.45 3.8.59 5.98.58-5.4-2.4-10.89-3.39-16.33-4.57-5.51-1.19-11.05-2.21-16.57-3.31-.02.12-.04.25-.05.37 3.81 1.2 7.6 2.48 11.44 3.56 2.32.65 4.75.96 7.11 1.47 2.81.61 5.62 1.24 8.42 1.9zm-20.24-3.85c-.41-.17-.64-.31-.91-.38-5.06-1.42-10.11-2.86-15.18-4.27-1.03-.29-2.08-.61-3.13-.7-2.59-.21-5.19-.32-7.79-.42-4.41-.18-8.82-.43-13.23-.46-5.43-.03-10.86.11-16.29.23-1.06.03-2.15.2-3.16.53-1.66.54-3.26 1.26-4.88 1.92-.29.11-.55.3-.8.44 21.83-.72 43.53.56 65.37 3.11zm20.58-1.34c0-.08.01-.16.02-.24-3.24-.66-6.48-1.35-9.73-1.97-2.72-.52-5.46-.92-8.19-1.43-2.11-.4-4.19-.98-6.3-1.35-7.46-1.29-14.93-2.55-22.42-3.74-2.23-.35-4.5-.39-6.76-.57-1.14-.1-2.28-.21-3.41-.32-.01.11-.03.22-.04.33.59.13 1.18.25 1.76.39 1.65.38 3.34.66 4.95 1.17 5.16 1.63 10.36 2.75 15.81 2.82 4.03.05 7.94 1.14 11.84 2.08.94.22 1.87.49 2.82.6 5.61.7 11.24 1.36 16.86 2.03.93.12 1.86.14 2.79.2zm-93.62.01c2.24-.25 4.41-1.32 5.48-2.71-1.67 1.14-4.05.79-5.48 2.71zm2.3-2.6c.58-.2 1.15-.41 1.73-.61 1.66-.58 3.31-1.14 4.95-1.73.8-.29 1.59-.6 2.35-.97 3.11-1.52 6.33-2.68 9.78-3.17.9-.13 1.8-.35 2.69-.53-8.62-1.1-15.54 1.13-21.5 7.01zm10.85-3.3c3.85.28 7.59-.26 11.35-.47 3.72-.21 7.46-.01 11.19.14 3.72.15 7.42.46 11.13.7-.55-.41-1.11-.65-1.7-.8-4-1.01-8-2.01-12.01-2.97-.81-.2-1.7-.35-2.52-.23-3.92.54-7.84 1.08-11.73 1.83-1.94.37-3.81 1.19-5.71 1.8z"/><path d="M141.2 33.53c-.04 0-.07-.01-.11-.01.03-.01.06-.01.09-.01.01 0 .04 0 .05-.01l-.03.03z"/></g></svg>