<svg xmlns="http://www.w3.org/2000/svg" viewBox="0 0 309.051 123.916"><path d="M267.958 3.18c-2.723-.57-4.053 3.806-5.327 6.38a65.63 65.63 0 0 0-6.034 17.446c-.51 2.818-.865 5.665-1.305 8.6 1.635 0 3.1-.1 4.555.032a15.765 15.765 0 0 1 3.145.756c1.035.316 2.026.786 3.064 1.092a7.455 7.455 0 0 1 3.218 1.968 14.99 14.99 0 0 1 4.28 9.13 44.384 44.384 0 0 1 .013 11.866 21.485 21.485 0 0 1-4.134 9.983 3.187 3.187 0 0 1-.82.812c-3.013 1.807-6.058 3.52-9.754 2.75a10 10 0 0 1-4.23-2.31c-5.056-4.12-7.47-9.657-8.214-16.1-.22-1.917-.357-3.846-.53-5.77V48.18c.112-1.958.172-3.92.35-5.87.57-6.267 1.108-12.538 1.814-18.788a32.687 32.687 0 0 1 2.618-8.816c1.566-3.763 3.136-7.506 6.026-10.46A16.234 16.234 0 0 1 261.617.5a6.337 6.337 0 0 1 4.25-.22 15.28 15.28 0 0 1 1.984.7 9.448 9.448 0 0 1 1.39.817 2.166 2.166 0 0 1 1.06 1 .912.912 0 0 1-.22.955c-.584.248-1.455-.432-2.122-.572zm3.938 52.624c-.142-1.93-.21-3.87-.45-5.788a27.92 27.92 0 0 0-.89-4.153 11.072 11.072 0 0 0-2.52-4.72c-1.885-1.983-4.33-2.71-6.867-3.17a8.315 8.315 0 0 0-5.35.464 1.142 1.142 0 0 0-.744 1.166c0 1.666-.1 3.332-.088 5a66.692 66.692 0 0 0 2.008 17.43 15.8 15.8 0 0 0 3.992 7.448 3.583 3.583 0 0 0 3.046 1.1 6.47 6.47 0 0 0 5.3-3.826 26.2 26.2 0 0 0 2.562-10.95zM280.53 8.28c-2.956-2.577 4.255-5 7.83-5.4a7.565 7.565 0 0 0 .753-.163h1.94a3.935 3.935 0 0 0 3.043.32 2 2 0 0 1 2.108.47 3.413 3.413 0 0 0 1.32.816 3.74 3.74 0 0 1 2.414 1.733 8.454 8.454 0 0 0 1.326 1.526 11.758 11.758 0 0 1 3.678 7.6 29.234 29.234 0 0 1-.15 5.947 24.84 24.84 0 0 1-2.33 9.24c-.932 1.842-2.072 3.578-3.192 5.485.578.523 1.3 1.125 1.957 1.784a13.147 13.147 0 0 1 2.362 2.56c1.13 2.006 2.038 4.14 3.004 6.24a6.393 6.393 0 0 1 .472 1.588c.332 1.952.624 3.91.93 5.867v4.94c-.2 1.392-.355 2.79-.6 4.172a16.28 16.28 0 0 1-3.513 6.91 37.415 37.415 0 0 1-2.484 3.41 9.53 9.53 0 0 1-6.037 3.364c-1.773.17-3.51.775-5.28.88a16.66 16.66 0 0 1-4.424-.466c-2.546-.55-4.842-1.748-5.21-3.966a1.6 1.6 0 0 1 .534-1.406c.42-.1 1.075.775 1.28 1.153a5.482 5.482 0 0 0 5.2 2.934 13.927 13.927 0 0 0 3.2-.752 2.577 2.577 0 0 1 .654-.213c2.635.136 4.07-1.518 5.21-3.536a18.765 18.765 0 0 0 2.066-7.5 40.93 40.93 0 0 0-1.033-14.692c-.8-3-1.86-5.95-4.34-7.99a18.046 18.046 0 0 0-4.565-2.638 7.6 7.6 0 0 0-3.3-.252c-1.087.076-1.486-.467-1.674-1.48s.683-1.072 1.282-1.16a12.515 12.515 0 0 0 6.053-2.864 10.282 10.282 0 0 0 3.38-5.64 35.023 35.023 0 0 0 1.423-10.346 14.5 14.5 0 0 0-3.352-9.25 9.092 9.092 0 0 0-2.07-1.744 3.863 3.863 0 0 0-4.02-.015c-.8.41-1.65.72-2.487 1.05a7.9 7.9 0 0 0-1.543 1.093c-.475.297-1.393.75-1.817.386z"/><path d="M3.613 60.89l.1-4q0-5.86-.684-13.624t-.834-9.672q-.44-.927-.488-12.524t-.22-12.867a14.342 14.342 0 0 0-.83-3.027 8.518 8.518 0 0 1-.662-2.784Q-.004 0 7.516 0h.488q3.81 0 8.2 4.2t5.737 7.567a29.25 29.25 0 0 1 1.79 8.077q.44 4.712.61 8.618a16.445 16.445 0 0 0 .656 4.936l-.2 2.686.3.488-.293.83.293.488a5.287 5.287 0 0 0-.586 2.783 27.725 27.725 0 0 1-.2 3.418q-.2 1.564-.39 2.442t-.653 2.612q-.464 1.733-1.392 5.542-2.735 10.743-9.08 15.87t-7.5 5.127a5.922 5.922 0 0 1-2.343-.513 1.966 1.966 0 0 1-1.343-1.49 7.138 7.138 0 0 0 1.562-4zm.293-56.2l.88 16.6q0 6.444.756 19.115t.754 17.14q0 4.467-.2 9.838l.2.39v2.833h.488a20.645 20.645 0 0 0 6.64-5.737 31.49 31.49 0 0 0 4.472-7.814 57.42 57.42 0 0 0 2.612-8.912 76.752 76.752 0 0 0 1.61-15.332q0-29.25-16.112-29.248-2.003 0-2.1 1.123zM50.976 74.707l-3.32-.342a4.158 4.158 0 0 0-1.855.562 5.472 5.472 0 0 1-2.562.562 1.785 1.785 0 0 1-1.88-.978l-1.66.1q-2.15 0-2.734-1.025a1.257 1.257 0 0 1 .562-1.05 4.348 4.348 0 0 0 .757-.66h2.88l.392-.39.342-2.1-.735-21.877.488-23.34q0-6.787-.488-11.572a11.168 11.168 0 0 0-2.98-.293l-2.392.2q-1.9 0-1.9-1.71a1.177 1.177 0 0 1 .9-.83 3.95 3.95 0 0 1 1.49-.39q13.915 0 13.915 3.027a1.893 1.893 0 0 1-.244.78l-2.294.2a5.07 5.07 0 0 0-2.88-.585l-.49.293a25.95 25.95 0 0 1 .294 5.322l-.293 23.77.684 21.925-.1 3.076a7.173 7.173 0 0 0 .294 2.783l-.1.244q0 .977 2.2.977l2.93-.1q2.978 0 2.98 1.416a1.837 1.837 0 0 1-.636 1.44 2.276 2.276 0 0 1-1.562.564zM71.924 11.767l-2.1-.586a3.644 3.644 0 0 0-2.734 1.246 7.925 7.925 0 0 0-1.758 3.1 19.075 19.075 0 0 0-1.22 5.664q0 2.05.1 2.93a18.42 18.42 0 0 0 .365 2.05q.268 1.173.366 1.66t.562 2.027q.464 1.538.513 1.733l.732 1.807q.976 1.758 2.54 4.42t2.34 4.027q.782 1.367 1.808 3.59a22.434 22.434 0 0 1 1.465 4.027 33.1 33.1 0 0 1 1.22 8.326 47.243 47.243 0 0 1-.292 5.908 23.5 23.5 0 0 1-1.1 4.565 17.785 17.785 0 0 1-1.977 4.1 8.5 8.5 0 0 1-7.52 4.1l-.488.243q-2.93-.538-3.223-2.44l.488-.782 3.613.685a5.224 5.224 0 0 0 3.955-1.782 11.346 11.346 0 0 0 2.49-4.517 34.08 34.08 0 0 0 1.465-9.4 26.235 26.235 0 0 0-1.245-8.154 39.818 39.818 0 0 0-3-7.007l-3.516-6.348a30.98 30.98 0 0 1-4.248-15.088 19.65 19.65 0 0 1 1.367-7.276q2.49-6.4 6.544-6.4a4.687 4.687 0 0 1 2.466.854 2.373 2.373 0 0 1 1.343 1.93q0 .79-1.32.79zm.684-.39v.1h.1a.086.086 0 0 0-.1-.1zM89.796 56.2l.83 19.483a1.642 1.642 0 0 1-1.9 1.807l-1.416-.78a79.573 79.573 0 0 1-1.123-14.4l.44-18.6a6.286 6.286 0 0 1-.636-2.296q1.026-1.71 1.026-9.23 0-17.822-.586-19.384.976-2.49 1.465-2.49h4.395a7.415 7.415 0 0 1 3.247 1.1 19.633 19.633 0 0 1 3.3 2.173q2.49 2.3 2.49 11.816 0 8.447-.732 10.228a21.55 21.55 0 0 1-1.572 3.116 7.4 7.4 0 0 1-2.1 2.222 24.2 24.2 0 0 1-7.13 3.32V56.2zm-.1-40.136l.488 14.4-.388 9.428.635.977q7.325 0 7.667-15.382v-2.685q0-1.61-.1-2.734a14.63 14.63 0 0 0-.464-2.49 6.273 6.273 0 0 0-1-2.2 5.442 5.442 0 0 0-4.64-2 2.017 2.017 0 0 0-1.757.634 3.688 3.688 0 0 0-.44 2.05zM111.816 74.707l.1-2.54-.342-.39a11.853 11.853 0 0 0 .732-4.1l-.49-13.185.68-30.127-.39-11.963q0-2.832 2.88-2.832a1.91 1.91 0 0 1 1.61.635q.342.1 2.882.39 6.152.685 6.3 2.49 0 .782-1.9 1.9a33.738 33.738 0 0 0-8.105-1.9l-.488.587q.1 1.417.1 4.3l-.39 15.527q0 2.782 1.415 2.782l3.37-.2q3.808 0 3.905 1.807a3.217 3.217 0 0 1-.513 1.806 2.025 2.025 0 0 1-1.83.78 2.37 2.37 0 0 1-1.954-.78l-3.27-.488h-.44l-.488.488v.293q.195 2.587.2 7.91l-.2 14.208q0 9.96 1.367 11.035a5.2 5.2 0 0 0 3.223.732l3.71-.2q2.93 0 2.93 1.318 0 1.806-4.345 1.807h-8.252q-1.86.007-2.007-2.093zM163.77 14.6l-.2-2.49q0-2.1 1.415-2.1a1.836 1.836 0 0 1 1.587.927 3.5 3.5 0 0 1 .61 1.953v6.69l-.537.83q0 7.81-1.074 30.248t-2.1 24.536q-.244.048-1.44.366a7.805 7.805 0 0 1-1.684.317 1.083 1.083 0 0 1-.88-.66 5.632 5.632 0 0 1-.61-1.732 5.658 5.658 0 0 0-.414-1.416l.1-.294a49.516 49.516 0 0 0-2.612-9.5q-1.978-5.347-2.563-7.2a73.847 73.847 0 0 1-2.686-7.47q-8.984-27.88-11.327-30.128a28.637 28.637 0 0 0-.78 7.03l.2 7.862-.2 4.834q0 1.124.39 6.982h-.293q0 16.65.684 18.408v8.984a3.523 3.523 0 0 1 .39 1.758q0 2.344-1.854 2.344-2.1 0-2.1-5.37l.39-6.544-.634-28.76.635-17.725v-1.753a13.243 13.243 0 0 1 .074-1.758q.073-.44.146-1.05a3.577 3.577 0 0 1 .22-.953c.1-.228.21-.488.342-.78a3.87 3.87 0 0 1 1.025-1.417l.293.342.977-.244a1.982 1.982 0 0 1 1.367 1.563 3.462 3.462 0 0 0 .122.563q.122.464.122.513 1.708 7.13 7.178 19.873t6.64 16.38q1.173 3.638 2.1 7.69 2.052 8.985 4.493 13.136l.2-.293q2.288-21.828 2.29-54.494zm-2.1 60.985a.086.086 0 0 1 .1.1zM187.353 11.767l-2.1-.586a3.644 3.644 0 0 0-2.734 1.246 7.925 7.925 0 0 0-1.76 3.1 19.06 19.06 0 0 0-1.22 5.664q0 2.05.1 2.93a18.2 18.2 0 0 0 .366 2.05q.268 1.173.366 1.66t.562 2.027q.463 1.538.513 1.733l.732 1.807q.975 1.758 2.538 4.42t2.344 4.027q.78 1.367 1.807 3.59a22.434 22.434 0 0 1 1.464 4.027 33.1 33.1 0 0 1 1.22 8.326 47.243 47.243 0 0 1-.292 5.908 23.5 23.5 0 0 1-1.1 4.565 17.785 17.785 0 0 1-1.978 4.1 8.5 8.5 0 0 1-7.52 4.1l-.488.243q-2.93-.538-3.223-2.44l.488-.782 3.614.685a5.225 5.225 0 0 0 3.955-1.782 11.346 11.346 0 0 0 2.49-4.517 34.08 34.08 0 0 0 1.464-9.4 26.235 26.235 0 0 0-1.245-8.154 39.818 39.818 0 0 0-3-7.007l-3.517-6.348a30.98 30.98 0 0 1-4.248-15.088 19.64 19.64 0 0 1 1.367-7.276q2.49-6.4 6.543-6.4a4.69 4.69 0 0 1 2.466.854 2.374 2.374 0 0 1 1.344 1.93q-.002.79-1.32.79zm.684-.39v.1h.1a.086.086 0 0 0-.1-.1zM214.355 60.596l-2.637.1a8.1 8.1 0 0 0-3.125-.586 7.934 7.934 0 0 0-1.855.1.506.506 0 0 0-.2.342 1.568 1.568 0 0 1-.1.342l-.2 2a50.34 50.34 0 0 1-.928 6.1q-1.368 6.983-2.88 6.982a2.16 2.16 0 0 1-1.32-.537 1.507 1.507 0 0 1-.683-1.173 85.926 85.926 0 0 0 2.637-11.377q1.367-7.617 1.71-9.5t1.27-7.593l1.22-7.52q.293-1.806 1.587-7.812t1.564-7.86q.268-1.857.61-5.03.83-7.812 1.318-8.69l1.367.1a2.462 2.462 0 0 0 1.806-.587 2.086 2.086 0 0 1 1.22.415 1.284 1.284 0 0 1 .587 1.1q0 4.786 1.22 18.506t1.93 17.748q.708 4.028 1.636 7.91a27.8 27.8 0 0 1 .927 5.933l-.488 1.368a38.7 38.7 0 0 0 .83 6.616 38.69 38.69 0 0 1 .83 6.152q0 1.783-.782 2.222-2.05 0-2.515-.586a3.036 3.036 0 0 1-.464-1.88q0-1.293-.172-3.174t-.342-3q-.17-1.124-.586-3.54t-.513-3.1a18.256 18.256 0 0 0-4.482-.492zm-7.03-4.932q0 1.025 2.392 1.71a30.013 30.013 0 0 0 8.105 1.024h1.025a14.512 14.512 0 0 1-.635-4.492V51.61a152.427 152.427 0 0 0-1.537-18.066 174.28 174.28 0 0 1-1.636-17.676q-5.226 25.83-6.47 31.91a52.315 52.315 0 0 0-1.246 7.886zM8.416 105.015a2.78 2.78 0 0 0-1.632-.48 2.93 2.93 0 0 0-1.38.3 2.728 2.728 0 0 0-.945.814 3.516 3.516 0 0 0-.55 1.165 5.207 5.207 0 0 0-.175 1.36 5.832 5.832 0 0 0 .176 1.456 3.478 3.478 0 0 0 .55 1.2 2.7 2.7 0 0 0 .95.814 2.953 2.953 0 0 0 1.386.3 2.658 2.658 0 0 0 1.052-.2 2.372 2.372 0 0 0 .794-.542 2.485 2.485 0 0 0 .523-.825 3.422 3.422 0 0 0 .23-1.033h1.2a4.09 4.09 0 0 1-1.17 2.646 3.792 3.792 0 0 1-2.723.944 4.34 4.34 0 0 1-1.827-.358 3.588 3.588 0 0 1-1.3-.99 4.24 4.24 0 0 1-.78-1.482 6.328 6.328 0 0 1-.257-1.84 6.017 6.017 0 0 1 .277-1.846 4.438 4.438 0 0 1 .813-1.5 3.785 3.785 0 0 1 1.335-1.015 4.3 4.3 0 0 1 1.833-.372 4.625 4.625 0 0 1 1.335.19 3.58 3.58 0 0 1 1.123.555 3.12 3.12 0 0 1 .82.913 3.35 3.35 0 0 1 .427 1.267H9.3a2.228 2.228 0 0 0-.884-1.44zM22.143 103.744l3.516 9h-1.325l-.982-2.71h-3.805l-1.008 2.71h-1.223l3.5-9h1.323zm.832 5.28l-1.5-4.2h-.025l-1.524 4.2h3.05zM38.75 103.744v1.008h-4.712v2.86h4.133v1.008H34.04v4.12h-1.2v-9h5.91zM52.282 103.744v1.008H47.57v2.86h4.133v1.008H47.57v4.12h-1.2v-9h5.91zM66.117 103.744v1.008h-5.015v2.86h4.675v1.008h-4.675v3.112h5.053v1.008h-6.25v-9h6.212zM72.946 104.75v-1.006h7.194v1.008h-3v7.988h-1.2v-7.988h-3zM86.478 104.75v-1.006h7.194v1.008h-3v7.988h-1.2v-7.988h-3zM107.18 103.744v1.008h-5.015v2.86h4.675v1.008h-4.675v3.112h5.053v1.008h-6.25v-9h6.212zM119.2 103.744a2.964 2.964 0 0 1 2.01.63 2.17 2.17 0 0 1 .725 1.726 2.734 2.734 0 0 1-.37 1.437 1.913 1.913 0 0 1-1.19.845v.025a1.59 1.59 0 0 1 .635.252 1.37 1.37 0 0 1 .39.42 1.907 1.907 0 0 1 .215.55 5.72 5.72 0 0 1 .107.63q.025.327.038.667a5.773 5.773 0 0 0 .063.668 4.1 4.1 0 0 0 .146.624 1.53 1.53 0 0 0 .282.52h-1.336a.753.753 0 0 1-.17-.377 3.95 3.95 0 0 1-.057-.535c-.01-.2-.018-.41-.026-.637a4.33 4.33 0 0 0-.075-.667q-.052-.327-.127-.623a1.48 1.48 0 0 0-.24-.517 1.185 1.185 0 0 0-.428-.354 1.6 1.6 0 0 0-.706-.133h-2.924v3.843h-1.2v-9h4.234zm.253 4.082a1.73 1.73 0 0 0 .66-.246 1.342 1.342 0 0 0 .455-.49 1.65 1.65 0 0 0 .17-.8 1.61 1.61 0 0 0-.378-1.11 1.553 1.553 0 0 0-1.223-.428h-2.974v3.138h2.5a4.825 4.825 0 0 0 .79-.066zM131.145 103.744v9h-1.2v-9h1.2zM143.228 103.744l3.516 9h-1.323l-.98-2.71h-3.807l-1.008 2.71h-1.222l3.5-9h1.323zm.832 5.28l-1.5-4.2h-.024l-1.525 4.2h3.05z" fill="#1d1d1b"/><path d="M156.578 108.223a1.335 1.335 0 0 1-.384.98 1.424 1.424 0 0 1-1.95 0 1.335 1.335 0 0 1-.385-.98 1.315 1.315 0 0 1 .383-.973 1.44 1.44 0 0 1 1.95 0 1.315 1.315 0 0 1 .385.973z" fill="#000100"/><path d="M168.58 103.744a2.79 2.79 0 0 1 2.06.7 3.1 3.1 0 0 1 0 3.925 2.735 2.735 0 0 1-2.06.69h-2.746v3.68h-1.2v-9h3.944zm-.4 4.31a2.138 2.138 0 0 0 1.494-.416 1.585 1.585 0 0 0 .473-1.235 1.564 1.564 0 0 0-.473-1.23 2.2 2.2 0 0 0-1.493-.42h-2.343v3.3h2.344zM181.936 103.744l3.516 9h-1.323l-.983-2.71h-3.806l-1.007 2.71h-1.222l3.5-9h1.324zm.832 5.28l-1.5-4.2h-.024l-1.525 4.2h3.05zM197.14 104.97a2.54 2.54 0 0 0-1.532-.434 3.627 3.627 0 0 0-.743.075 1.988 1.988 0 0 0-.648.253 1.326 1.326 0 0 0-.454.473 1.463 1.463 0 0 0-.17.737.937.937 0 0 0 .246.674 1.823 1.823 0 0 0 .653.422 5.493 5.493 0 0 0 .927.27q.516.107 1.052.232t1.053.3a3.536 3.536 0 0 1 .926.46 2.2 2.2 0 0 1 .656.73 2.564 2.564 0 0 1-.076 2.338 2.653 2.653 0 0 1-.825.832 3.6 3.6 0 0 1-1.128.466 5.455 5.455 0 0 1-1.24.145 5.28 5.28 0 0 1-1.43-.188 3.546 3.546 0 0 1-1.186-.573 2.714 2.714 0 0 1-.805-.983 3.15 3.15 0 0 1-.3-1.418h1.135a2.04 2.04 0 0 0 .22.977 2.01 2.01 0 0 0 .58.673 2.436 2.436 0 0 0 .838.39 3.844 3.844 0 0 0 .982.127 4.536 4.536 0 0 0 .813-.075 2.392 2.392 0 0 0 .736-.26 1.453 1.453 0 0 0 .528-.5 1.47 1.47 0 0 0 .2-.806 1.128 1.128 0 0 0-.246-.757 1.806 1.806 0 0 0-.655-.473 4.77 4.77 0 0 0-.926-.3l-1.052-.233q-.535-.12-1.052-.277a3.748 3.748 0 0 1-.926-.416 1.984 1.984 0 0 1-.655-.668 1.962 1.962 0 0 1-.246-1.026 2.38 2.38 0 0 1 .276-1.178 2.417 2.417 0 0 1 .737-.82 3.3 3.3 0 0 1 1.046-.478 4.592 4.592 0 0 1 1.2-.158 4.8 4.8 0 0 1 1.284.164 2.908 2.908 0 0 1 1.04.517 2.482 2.482 0 0 1 .705.89 3.17 3.17 0 0 1 .282 1.277h-1.134a1.875 1.875 0 0 0-.69-1.403zM206.142 104.75v-1.006h7.194v1.008h-3v7.988h-1.2v-7.988h-3zM221.88 103.744v9h-1.2v-9h1.2zM235.632 105.015a2.78 2.78 0 0 0-1.632-.48 2.926 2.926 0 0 0-1.38.3 2.74 2.74 0 0 0-.945.814 3.544 3.544 0 0 0-.548 1.165 5.228 5.228 0 0 0-.176 1.36 5.855 5.855 0 0 0 .177 1.456 3.5 3.5 0 0 0 .548 1.2 2.7 2.7 0 0 0 .952.814 2.95 2.95 0 0 0 1.386.3 2.658 2.658 0 0 0 1.052-.2 2.372 2.372 0 0 0 .794-.542 2.484 2.484 0 0 0 .52-.825 3.437 3.437 0 0 0 .23-1.033h1.2a4.088 4.088 0 0 1-1.172 2.646 3.793 3.793 0 0 1-2.722.944 4.338 4.338 0 0 1-1.827-.358 3.577 3.577 0 0 1-1.3-.99 4.256 4.256 0 0 1-.776-1.486 6.345 6.345 0 0 1-.258-1.84 5.988 5.988 0 0 1 .277-1.846 4.428 4.428 0 0 1 .813-1.5 3.778 3.778 0 0 1 1.336-1.015 4.3 4.3 0 0 1 1.833-.373 4.624 4.624 0 0 1 1.335.19 3.59 3.59 0 0 1 1.122.554 3.106 3.106 0 0 1 .818.914 3.34 3.34 0 0 1 .43 1.267h-1.2a2.225 2.225 0 0 0-.888-1.435zM251.028 105.015a2.78 2.78 0 0 0-1.632-.48 2.926 2.926 0 0 0-1.38.3 2.74 2.74 0 0 0-.945.814 3.544 3.544 0 0 0-.547 1.165 5.228 5.228 0 0 0-.176 1.36 5.855 5.855 0 0 0 .176 1.456 3.5 3.5 0 0 0 .548 1.2 2.7 2.7 0 0 0 .953.814 2.95 2.95 0 0 0 1.386.3 2.658 2.658 0 0 0 1.05-.2 2.372 2.372 0 0 0 .795-.542 2.484 2.484 0 0 0 .522-.825 3.437 3.437 0 0 0 .228-1.033h1.2a4.088 4.088 0 0 1-1.17 2.646 3.793 3.793 0 0 1-2.723.944 4.338 4.338 0 0 1-1.827-.358 3.577 3.577 0 0 1-1.3-.99 4.256 4.256 0 0 1-.775-1.486 6.345 6.345 0 0 1-.258-1.84 5.988 5.988 0 0 1 .277-1.846 4.428 4.428 0 0 1 .812-1.5 3.778 3.778 0 0 1 1.336-1.015 4.3 4.3 0 0 1 1.833-.373 4.624 4.624 0 0 1 1.336.19 3.59 3.59 0 0 1 1.122.554 3.106 3.106 0 0 1 .818.914 3.34 3.34 0 0 1 .43 1.267h-1.2a2.225 2.225 0 0 0-.888-1.435zM267.196 103.744v1.008h-5.015v2.86h4.676v1.008h-4.675v3.112h5.054v1.008h-6.25v-9h6.212zM279.22 103.744a2.964 2.964 0 0 1 2.01.63 2.17 2.17 0 0 1 .725 1.726 2.734 2.734 0 0 1-.37 1.437 1.913 1.913 0 0 1-1.19.845v.025a1.59 1.59 0 0 1 .635.252 1.37 1.37 0 0 1 .39.42 1.907 1.907 0 0 1 .215.55 5.72 5.72 0 0 1 .107.63q.025.327.038.667a5.773 5.773 0 0 0 .063.668 4.1 4.1 0 0 0 .146.624 1.53 1.53 0 0 0 .282.52h-1.336a.753.753 0 0 1-.17-.377 3.95 3.95 0 0 1-.057-.535c-.01-.2-.018-.41-.026-.637a4.33 4.33 0 0 0-.075-.667q-.052-.327-.127-.623a1.48 1.48 0 0 0-.24-.517 1.185 1.185 0 0 0-.428-.354 1.6 1.6 0 0 0-.706-.133h-2.924v3.843h-1.2v-9h4.234zm.253 4.082a1.73 1.73 0 0 0 .66-.246 1.342 1.342 0 0 0 .455-.49 1.65 1.65 0 0 0 .17-.8 1.61 1.61 0 0 0-.378-1.11 1.553 1.553 0 0 0-1.223-.428h-2.974v3.138h2.5a4.825 4.825 0 0 0 .79-.066zM291.165 103.744v9h-1.2v-9h1.2zM303.248 103.744l3.516 9h-1.323l-.98-2.71h-3.807l-1.008 2.71h-1.222l3.5-9h1.323zm.832 5.28l-1.5-4.2h-.024l-1.525 4.2h3.05z" fill="#1d1d1b"/><path d="M219.788 95.278c2.886 0 5.28-.062 7.666.01 8.162.252 16.3-.2 24.445-.3 1.042-.01 2.09.077 3.13.04 2.975-.1 5.943-.3 8.918-.36 3.273-.07 6.55-.057 9.827-.037 6.847.044 13.694.155 20.54.148 1.85 0 3.694-.35 5.55-.5 2.483-.2 4.975-.36 7.466-.524.837-.055 1.55.042 1.7.683a1.2 1.2 0 0 1-1.19 1.356 10.75 10.75 0 0 1-1.87.075c-10.9-.295-21.8-.3-32.692-.1-8.45.157-16.912.373-25.332.83-8.51.462-17.01.524-25.53.44-2.725-.026-5.452.113-8.178.122-10.833.034-21.66-.008-32.478-.5-4.376-.2-8.793-.065-13.19-.055-4.192.01-8.385.027-12.575.094-2.863.045-5.72.212-8.582.273q-6.7.142-13.4.21c-9.634.094-19.268.225-28.9.228-8.73 0-17.458-.18-26.188-.214-4.81-.02-9.62.1-14.432.154-3.076.033-6.154.017-9.227.09-1.88.043-3.748.232-5.625.323a44.984 44.984 0 0 1-4.585.125q-9.095-.5-18.217-.45c-2.3.017-4.6-.184-6.9-.192-2.228-.008-4.456.15-6.685.154-3.835 0-7.67-.047-11.505-.093-.744-.01-1.433-.126-1.055-.87 2.323-.092 4.675-.237 7.03-.267 4.88-.063 9.763-.08 14.645-.09 5.16-.01 10.32.04 15.48.008 3.84-.023 7.68-.19 11.52-.186 4.665.006 9.33.176 14 .18 3.405 0 6.815-.11 10.215-.248 8.23-.333 16.455-.33 24.69-.043 2.77.1 5.565-.106 8.35-.137 3.773-.042 7.548-.06 11.322-.07q7.968-.024 15.937-.023c5.16 0 10.32.03 15.478-.02 2.437-.026 4.87-.213 7.3-.328.766-.036 1.53-.1 2.3-.112 3.352-.07 6.707-.2 10.057-.165 3.06.03 6.11.264 9.17.356q6.8.2 13.61.332c3.834.074 7.675.207 11.5.128 4.382-.09 8.754-.37 13.124-.6zM89.844 122.385c-2.886 0-5.28.062-7.666-.01-8.162-.252-16.3.2-24.445.3-1.043.01-2.092-.077-3.132-.04-2.973.1-5.94.3-8.916.36-3.273.07-6.55.057-9.827.037-6.847-.043-13.694-.154-20.54-.147-1.85 0-3.694.35-5.55.5-2.483.2-4.975.36-7.466.524-.835.054-1.55-.043-1.7-.684a1.2 1.2 0 0 1 1.19-1.356 10.75 10.75 0 0 1 1.872-.075c10.9.295 21.8.3 32.692.1 8.45-.157 16.912-.373 25.332-.83 8.51-.462 17.01-.524 25.53-.44 2.725.026 5.452-.113 8.178-.122 10.833-.034 21.66.008 32.478.5 4.376.2 8.793.065 13.19.055 4.192-.01 8.385-.027 12.575-.094 2.863-.046 5.72-.213 8.582-.274q6.7-.142 13.4-.21c9.633-.094 19.267-.225 28.9-.228 8.728 0 17.457.18 26.187.215 4.81.02 9.62-.1 14.432-.154 3.075-.033 6.153-.017 9.226-.09 1.88-.043 3.748-.232 5.625-.323a44.984 44.984 0 0 1 4.587-.125q9.095.5 18.217.45c2.3-.017 4.6.184 6.9.192 2.228.008 4.456-.15 6.685-.154 3.834 0 7.67.047 11.504.093.744.01 1.433.126 1.055.87-2.324.092-4.676.237-7.03.267-4.882.063-9.764.08-14.646.09-5.16.01-10.32-.04-15.48-.008-3.84.023-7.68.19-11.52.186-4.665-.005-9.33-.175-14-.178-3.405 0-6.815.11-10.215.247-8.232.332-16.456.33-24.692.042-2.77-.1-5.564.107-8.348.138-3.774.042-7.55.06-11.323.07q-7.968.024-15.937.023c-5.16 0-10.32-.03-15.478.02-2.437.026-4.87.213-7.3.328-.766.037-1.53.1-2.3.113-3.352.07-6.707.2-10.057.165-3.06-.03-6.11-.264-9.17-.356q-6.8-.2-13.61-.33c-3.834-.075-7.675-.208-11.5-.13-4.382.092-8.754.37-13.124.6z"/></svg>
