<svg xmlns="http://www.w3.org/2000/svg" width="1642.2" height="5797.2" viewBox="0 0 1642.2 5797.2"><path class="menu-path-line" fill="none" stroke="#303030" stroke-width="3" stroke-miterlimit="10" d="M1079.1 49.2c12.2 35.4 48.7 76 47.9 116-.6 29.4-22.1 53.9-43.6 73.9-107.8 100.5-261.3 164.5-404.2 128-62.9-16.1-119.6-50.1-180.7-72.3-99.7-36.2-213.6-38.8-310.4 4.5-96.7 43.5-173 135.9-185.6 241.2C-19.7 727 147.7 880.7 313.9 968.2c107.5 56.6 228.5 101.7 348.5 82.5 73-11.7 154.2-85.6 113.4-147.3-8.2-12.4-20.5-21.8-33.9-28.3-71.3-34.8-164.6 20.7-182.7 98s27.2 159.8 94.3 202.2 151 50.3 229.8 41.1c113.1-13.1 237.6-56.2 333.3 5.4 125.4 80.8 93 286.1-16.9 386.9s-264 132.9-403.1 186.5c-69 26.6-138.2 61.3-183 120.2-44.7 58.9-57.7 147.4-12.5 205.9 19.6 25.4 47.7 42.6 72.6 62.7 99.4 80.3 150.7 216 129.3 341.9-21.4 125.9-114.7 237.1-235 280-114.9 41-252.2 25.1-348.9 99.6-118.3 91.1-99.2 306.3 33.3 375.1 104.5 54.3 246.7 24.6 332.4 105.4 65.7 61.9 70 163.8 63 253.9-7 90.8-20.8 181.1-41.3 269.8-9.8 42.7-23.6 88.6-59.3 113.9s-98.8 12.5-105.3-30.9c-9.3-62 89.5-76.1 143-43.6 133.5 81.2 174.7 256.8 171.3 413-3.3 156.2-38.4 314.2-6.1 467.1 14.3 67.8 50 140.5 116.7 159.5 61.7 17.6 126.8-18.2 172-63.8 45.2-45.6 79.3-102 128.9-142.7 152-124.8 420.4-27.2 466.4 164.1 46 191.2-134.3 396.6-330.7 386.4-120.1-6.3-237-77.2-354.1-49.9-99 23.1-170.8 114.1-200.3 211.5-26.1 86.2-24.9 177.6-20.4 268"/></svg>
