<svg xmlns="http://www.w3.org/2000/svg" width="56.693" height="56.693" viewBox="0 0 56.693 56.693"><path d="M30.374 4.622c-13.586 0-20.437 9.74-20.437 17.864 0 4.918 1.862 9.293 5.855 10.922.655.27 1.242.01 1.432-.715.132-.5.445-1.766.584-2.295.19-.717.117-.967-.412-1.594-1.15-1.357-1.888-3.115-1.888-5.607 0-7.226 5.407-13.695 14.08-13.695 7.678 0 11.897 4.692 11.897 10.957 0 8.245-3.65 15.204-9.065 15.204-2.992 0-5.23-2.473-4.514-5.508.86-3.623 2.524-7.53 2.524-10.148 0-2.34-1.257-4.292-3.856-4.292-3.058 0-5.515 3.164-5.515 7.4 0 2.7.91 4.526.91 4.526l-3.677 15.582c-1.092 4.625-.164 10.293-.085 10.865.046.34.482.42.68.165.28-.37 3.925-4.865 5.162-9.36.35-1.27 2.01-7.858 2.01-7.858.995 1.896 3.9 3.562 6.987 3.562 9.19 0 15.428-8.38 15.428-19.596 0-8.483-7.183-16.382-18.1-16.382z"/></svg>