<svg xmlns="http://www.w3.org/2000/svg" width="212.61" height="45.97" viewBox="0 0 212.61 45.97"><path d="M88.75 33.52c-.04 0-.08-.01-.11-.01.03-.01.06-.01.09-.01.02 0 .04 0 .06-.01-.02.02-.03.03-.04.03z"/><path fill="#FFF" d="M158.25 28.46c.36-.49.91-.43.9.63-4.89 1.24-9.75 2.79-14.99 2.2.46-.08.92-.17 1.39-.25 3.88-.65 7.77-1.29 11.66-1.93.45-.07.73-.23 1.04-.65zM163.28 26.99c.68.83.74 1.41-.27 1.86.08-.56.16-1.12.27-1.86zM180.65 27.55c.92-.14 1.67-.07 1.7 1.24-1.64-.02-1.64-.02-1.7-1.24zM145.51 29.35l-2.31-.78c.01-.1.02-.21.04-.31l6.48.03 6.43.03.03.23c-4.3.71-8.59 1.42-12.9 2.13-.15-.47-.24-.72-.37-1.17.92.05 1.72.1 2.52.14.01-.09.04-.19.08-.3zM179.67 28.44c-.16.07-.32.14-.48.2-.19-.34-.37-.69-.63-1.16.34-.08.69-.2.7-.17.17.37.28.76.41 1.13zM168.61 28.34c-.09.03-.18.06-.27.08-.1-.34-.2-.67-.3-1.02.1-.03.21-.06.31-.08.08.34.17.68.26 1.02zM190.86 27.8c.82.05 1.42-.27 1.99.24-.9.41-1.24.73-1.45 1.52l-.54-1.76zM177.88 28.27c-1.31.42-1.06-.53-1.3-1.13.91-.18 1.01.45 1.3 1.13zM173.47 26.81c1.98.01 2.04.05 2.2 1.54-.63-.05-1.12-.08-1.64-.12-.2-.49-.37-.94-.56-1.42zM187.12 28.08c1.26.01 2.14.01 3.16.02-.1.4-.2.8-.33 1.3-.45-.36-.79-.63-1.26-1-.19.34-.36.62-.6 1.03-.35-.48-.57-.78-.97-1.35zM183.88 27.9c-.16.46-.26.75-.45 1.32-.17-.6-.26-.95-.38-1.39.7 0 1.3.01 2.12.01.03.42.06.77.1 1.31-.53-.47-.91-.81-1.39-1.25zM166.86 28.57c-.15-.65-.31-1.31-.5-2.17.86 1 .86 1 .5 2.17zM171.13 26.74c1.17-.28 1.35.43 1.59 1.35-.5 0-.83 0-1.26-.01-.1-.43-.21-.88-.33-1.34zM169.11 26.54c1.38.6 1.48.95.69 2.04-.24-.69-.43-1.28-.69-2.04zM193.08 27.82c.73-.61 1.53-.3 2.25-.34.73-.04 1.47-.01 2.29 0 .76.7 1.4 1.47 1.14 2.63-.15.05-.3.1-.44.15-.28-.61-.56-1.22-.86-1.88-.45-.03-.88-.05-1.42-.09 0 .43 0 .79-.01 1.15-.76.32-1.11-.11-1.53-.64-.32-.39-.87-.6-1.42-.98zM198.97 27.6c1.4-.55 2.62-.04 4.24-.05-.91 1.3.21 2.53-.61 3.59-.04.06-.21.01-.44.03 0-.36.12-.78-.02-1.06-.33-.66 0-1.96-1.47-1.67-.09.02-.27-.41-.51-.83-.19.39-.29.61-.45.94-.25-.32-.46-.58-.74-.95zM143.03 25.97c4.35.41 8.64.82 12.92 1.23-.01.09-.01.18-.02.28l-11.95-.06c-.23-.37-.54-.84-.95-1.45zM163.9 25.82c.37.02.72.04 1.07.08 1.13 2.15 1.13 2.23.05 2.75-.27-.67-.52-1.34-.8-2.01-.08-.2-.25-.36-.34-.51l.02-.31zM160.25 26.65c.79-.19 1.08-1.29 2.11-1.03.5.12 1.02.17 1.53.2l-.02.3c-1.76.08-1.43 1.62-2.07 2.54-.18-.2-.29-.3-.36-.42-.08-.14-.12-.31-.2-.53-.32.1-.62.2-1.12.35.05-.54 0-1.37.13-1.41zM142.99 25.13c.17-.75.31-1.33.46-1.97 4.95.7 9.61 1.89 14.27 3.08-.02.11-.04.23-.07.34-4.81-.48-9.63-.96-14.66-1.45zM158.92 25.59c-5.04-1.13-10-2.25-15.09-3.4-.21-.89.21-1.37 1.01-1.39.72-.02 1.46.08 2.16.26 3.76.96 7.57 1.81 11.05 3.62.25.13.49.27.71.44.07.05.07.2.16.47z"/><path d="M31.74 44.62c6.96.42 13.92.06 20.88-.23.7-.02 1.4-.06 2.11-.08-.01-.09-.01-.18-.01-.27-10.62-.38-21.24-.76-31.86-1.13.18.37.41.58.66.61 2.74.39 5.47.93 8.22 1.1zm30.99-9.25l6.16.03v-.28l-6.13-.03-.03.28zm42.09 1.46c3.05-.56 6.11-1.02 9.16-1.53-.02-.06-.04-.13-.06-.18-1.57.14-3.13.33-4.7.42-4.98.29-9.83 1.4-14.72 2.24-4.84.83-9.64 1.93-14.46 2.9-2.31.46-4.64.86-6.97 1.3-1.09.21-2.18.43-3.27.64.42.19.81.24 1.2.19 3.48-.42 6.96-.86 10.43-1.3 2.97-.37 5.98-.61 8.91-1.17 3.27-.63 6.47-1.58 9.7-2.37 1.59-.41 3.18-.84 4.78-1.14zM4.63 32.12c.12 1.91 1.41 4.28 3.13 5.33 2.43 1.5 4.91 2.94 7.94 3.1-.82-.48-1.66-.92-2.45-1.43-2.34-1.49-4.54-3.14-5.94-5.63-.92-1.61-.92-1.61-2.68-1.37zm9.23.57c1.39.58 2.75 1.25 4.18 1.72 3.51 1.15 7.14 1.72 10.79 2.16 6.05.73 12.09.72 18.14.15.95-.09 1.9-.14 2.85-.2-.6-.31-1.19-.3-1.79-.31-2.1-.03-4.2.05-6.28-.11-3.22-.25-6.42-.65-9.62-1-3.37-.37-6.76-.68-10.01-1.75-1.08-.35-2.15-.81-3.25-.91-1.63-.16-3.28-.06-4.92-.07-.04.1-.06.21-.09.32zm29.59.8c-4.06-.14-8.13-.55-12.19-.73-2.57-.11-5.14-.04-7.71-.05 7.55 1.67 15.2 2.42 22.91 2.6 4.97.13 9.94.29 14.87-1.16-1.79-.18-3.57-.48-5.35-.52-4.17-.1-8.36 0-12.53-.14zm-31.01-.65c-1.34-.82-2.85-.79-4.56-.64 1.67 2.53 3.16 4.91 5.82 6.24 1.11.56 2.16 1.22 3.21 1.9 1.74 1.14 3.56 1.83 5.71 1.77 3.06-.08 6.11-.04 9.16.08 5.77.24 11.53.6 17.3.88 6.35.3 12.69-.06 18.95-1.05 6.14-.97 12.22-2.33 18.32-3.54 4.13-.82 8.27-1.66 12.4-2.5 0-.06 0-.11.01-.16-.7 0-1.4-.03-2.09-.01-3.79.1-7.58.25-11.37.31-2.6.04-5.19-.04-7.79-.03-5.67.03-11.33.07-16.99.16-2.31.04-4.63.14-6.93.36-1.23.11-2.4.74-3.62.83-8.47.56-16.94 1.02-25.38-.56-4.26-.81-8.41-1.73-12.15-4.04zm123.06-1.27l-24.29.24c-.5.01-1.01.11-1.51.18-3.19.49-6.35 1.1-9.56 1.45-4.22.45-8.45.66-12.67 1.03-1.73.15-3.44.46-5.16.7.01.03.01.06.02.1 2.53.01 5.06.18 7.58 0 4.58-.31 9.15-.45 13.73-.35.84.02 1.7-.01 2.55-.08 2.82-.21 5.63-.44 8.45-.66 1.97-.16 3.95-.3 5.92-.49 2.75-.26 5.51-.5 8.27-.83 2.45-.29 4.88-.66 7.33-1-.23-.23-.45-.29-.66-.29zM3.12 30.73c-.3-.68-.46-1.05-.74-1.67-.29.58-.47.94-.71 1.41.49.09.79.15 1.45.26zm119-.41c-2.86-.31-5.67-1.21-8.59-.84-2.47.31-4.94.63-7.4 1-5.65.86-11.29 1.76-16.94 2.65-.16.03-.28.23-.41.36-.02.01-.04.01-.06.01-.03.01-.06.01-.09.01-.69-.07-1.38-.18-2.07-.15-1.47.05-2.94.15-4.4.27-3.2.27-6.39.58-9.59.86-.02 0-.04.08-.16.31 1.91.19 3.74.39 5.58.09 1.23-.2 2.46-.36 3.68-.52 2.32-.29 4.64-.59 6.96-.87.04 0 .08.01.11.01.01-.01.02-.01.03-.03 4.32-.35 8.66-.66 12.97-1.07 1.8-.17 3.56-.7 5.36-.88 2.92-.28 5.86-.44 8.8-.58 2.67-.13 5.35-.16 8.02-.23-.59-.2-1.19-.33-1.8-.4zm-107.25.75c-1.88-.75-3.42-2.12-5.6-2.76 1.43 2.21 2.96 3.65 5.6 2.76zm144.28-1.98c.01-1.06-.53-1.12-.9-.63-.31.42-.59.58-1.04.65-3.88.64-7.77 1.29-11.66 1.93-.47.08-.93.17-1.39.25 5.24.59 10.1-.96 14.99-2.2zm-3.01-.76l-6.43-.03-6.48-.03c-.01.11-.02.21-.04.31l2.31.78c-.04.11-.06.21-.09.31-.8-.04-1.6-.09-2.52-.14.13.44.22.7.37 1.17 4.31-.72 8.6-1.42 12.9-2.13 0-.09-.02-.16-.02-.24zm33.81 1.07c.13-.5.23-.9.33-1.3-1.01-.01-1.9-.01-3.16-.02.4.57.61.86.96 1.35.24-.41.41-.69.6-1.03.48.38.81.64 1.27 1zM5.18 27.5c-.55.2-.96.34-1.36.48.08 1 .15 1.89.22 2.87.57.1 1.09.18 1.67.29-.19-1.27-.35-2.41-.53-3.64zm2.21-.07c-.34-.44-.84-.51-1.38-.02.33 1.23.66 2.47 1 3.74.54.05.99.1 1.43.11.48.02.97.01 1.72.02-1.01-1.44-1.86-2.67-2.77-3.85zm185.46.61c-.57-.51-1.18-.19-1.99-.24l.54 1.76c.21-.79.55-1.11 1.45-1.52zm-60.12-.43c-3.55.28-7.1.59-10.64.89-1.04.09-2.08.22-3.12.32v.33c3.76.41 7.52.75 11.27 1.24 3.82.49 7.57-.29 11.39-.29.15-.84.01-1.17-.59-1.28-2.1-.37-4.19-.81-6.29-1.16-.65-.11-1.34-.1-2.02-.05zm50.69 1.61c.19-.57.3-.86.45-1.32.49.44.87.78 1.39 1.26-.04-.54-.07-.89-.1-1.31-.82 0-1.42-.01-2.12-.01.12.43.21.78.38 1.38zm-42.51-1.88c-.59 0-1.18-.01-1.99-.01.78.48 1.39.49 1.99.01zm27.7 1c-.09-.34-.17-.68-.26-1.02-.1.03-.21.06-.31.08.1.34.2.67.3 1.02.09-.02.18-.05.27-.08zm13.74.45c-.02-1.31-.78-1.37-1.7-1.24.06 1.22.06 1.22 1.7 1.24zm-2.68-.35c-.13-.38-.24-.76-.4-1.12-.01-.04-.36.08-.7.17.25.47.44.82.63 1.16.15-.07.31-.14.47-.21zm-10.56-1.9c.26.75.45 1.35.69 2.04.79-1.09.69-1.44-.69-2.04zm6.56 1.81c-.16-1.49-.22-1.53-2.2-1.54.19.48.36.92.56 1.41.52.05 1.01.08 1.64.13zm19.66-.86c-.72.03-1.52-.28-2.25.34.55.37 1.1.58 1.42.99.42.53.77.96 1.53.64 0-.35 0-.72.01-1.15.54.03.97.05 1.42.09.3.66.58 1.27.86 1.88.14-.05.29-.1.44-.15.26-1.16-.38-1.93-1.14-2.63-.82-.02-1.56-.05-2.29-.01zm-32.31 1.36c1-.46.95-1.03.27-1.86-.12.74-.2 1.3-.27 1.86zm8.11-2.11c.12.46.23.92.33 1.34.43 0 .75 0 1.26.01-.24-.92-.42-1.64-1.59-1.35zm33.75.51c-.72.34-1.23.82-1.12 1.64-.01 2.47 1.69 3.94 4.07 3.6.5-.08 1.01-.12 1.51-.23 1.75-.41 2.32-2.05 1.22-3.52-1.16-1.56-3.97-2.3-5.68-1.49zm-27 1.02c-.29-.68-.39-1.31-1.3-1.13.24.6-.01 1.55 1.3 1.13zm25.33-.72c-1.62.01-2.84-.5-4.24.05.29.37.49.63.73.94.16-.33.27-.55.45-.94.25.41.43.85.51.83 1.47-.29 1.14 1.01 1.47 1.67.14.28.02.7.02 1.06.23-.01.4.03.44-.03.82-1.04-.3-2.28.62-3.58zm-60.18-1.58c.41.62.71 1.08.96 1.45l11.95.06c.01-.09.01-.18.02-.28-4.28-.42-8.57-.82-12.93-1.23zM4.24 25.5c-.14.42-.27.8-.49 1.46 1.25-.64 1.25-.64.49-1.46zm162.62 3.07c.37-1.17.37-1.17-.5-2.17.19.86.34 1.51.5 2.17zm-1.89-2.67c-.35-.04-.7-.05-1.07-.08-.51-.03-1.03-.08-1.53-.2-1.03-.26-1.32.84-2.11 1.03-.13.03-.08.87-.13 1.41.5-.15.8-.25 1.12-.35.08.23.13.39.2.53.07.12.18.22.36.42.64-.92.31-2.47 2.07-2.54.1.14.26.31.34.51.28.67.53 1.34.8 2.01 1.08-.52 1.08-.6-.05-2.74zm-147.46-.35c-3.25-.93-6.09.37-9.1.76-.01.16-.02.31-.02.47.64.35 1.27.72 1.92 1.03 2.45 1.15 4.72 2.66 7.42 3.31 2.34.57 4.71.51 7.09.6 5.54.22 11.08.54 16.62.8 2.89.14 5.77.22 8.66.32.57.02 1.15.01 1.73.01-2.06-.71-4.11-1.28-6.2-1.69-5.66-1.09-11.35-2.09-17-3.19-3.74-.72-7.48-1.39-11.12-2.42zM5.72 24.09c.03.81-.09 1.43.97 1.25-.27-.36-.54-.71-.97-1.25zm137.73-.93c-.15.64-.28 1.22-.46 1.97 5.03.49 9.85.97 14.66 1.45.02-.11.04-.23.07-.34-4.66-1.19-9.32-2.38-14.27-3.08zm-1.58 1.73c-1.21-.36-2.08-.61-2.95-.87-.01.13-.04.26-.06.4.86.23 1.57 1.03 3.01.47zm-11.92-1.23c3.36.56 6.4 1.86 9.92 2.22-2.15-1.4-7.57-2.59-9.92-2.22zm6.77 2.66c-6.92-1.91-13.83-3.79-21.14-2.97.2.04.4.09.61.13 5.27.92 10.56 1.78 15.82 2.79 1.6.32 3.13.21 4.71.05zm-90.26-3.96c-2.35-.27-4.66-.8-7.08-.51-5.39.65-10.8 1.12-16.2 1.7-1.89.2-3.78.48-5.66.73-.02.16-.02.32-.03.48 2.81.59 5.61 1.2 8.43 1.76 3.88.77 7.77 1.51 11.65 2.25 2.99.58 6 1.1 8.98 1.74 4.63 1 9.18 2.34 13.99 2.56 2.96.14 5.87-.21 8.8-.26 3.79-.06 7.57-.37 11.36-.39 4.87-.02 9.72-.16 14.54-1.02 4.22-.75 8.48-1.36 12.72-2.03.15-.03.28-.13.7-.34-2.13-.12-3.93-.21-5.73-.33-3.33-.22-6.66-.38-9.98-.7-4.95-.47-9.9-1.03-14.85-1.6-3.31-.38-6.62-.83-9.92-1.27-2.58-.33-5.16-.71-7.74-1.04-4.66-.58-9.31-1.18-13.98-1.73zM13.45 24.3l-6.44-3.84c-.64 1.84.22 3.32.78 5.02 1.87-.39 3.59-.74 5.66-1.18zm36.63-3.34c-1.28.02-2.55.19-3.82.3 1.81.48 3.59.81 5.38 1.01 3.6.43 7.21.75 10.8 1.2 7.36.9 14.71 1.87 22.07 2.78 1.91.23 3.84.32 5.75.5 4.34.4 8.67.83 13 1.2 2.15.18 4.3.27 6.45.34 1.74.05 3.5.1 5.24-.03 2.59-.19 5.16-.63 7.75-.83 2.65-.21 5.31-.28 7.96-.4.01-.09.01-.17.02-.25-.2-.08-.39-.2-.59-.23-5.14-.85-10.25-1.83-15.42-2.49-4.2-.53-8.4-1.31-12.67-1.21-1.53.03-3.06-.06-4.59-.13-7.07-.31-14.13-.67-21.2-.96-3.17-.12-6.35-.04-9.52-.16-3.45-.14-6.89-.45-10.32-.61-2.1-.08-4.2-.06-6.29-.03zm86.18 1.71c-2.06-.36-4.12-.72-6.17-1.07 1.95.99 3.96 1.66 6.17 1.07zM4.69 18.82c-1.46-.03-2.36.51-3.09 1.54.58 1 1.15 1.96 1.7 2.92.14-.01.28-.03.42-.04.31-1.45.63-2.89.97-4.42zm124.08 3.78c-3.18-1.69-15.89-4.67-17.62-4.26 3.75 1.13 7.7 2.26 11.61 3.51 1.94.61 3.86 1.02 6.01.75zm15.06-.41c5.09 1.15 10.05 2.27 15.09 3.4-.09-.27-.09-.42-.17-.48-.22-.16-.46-.31-.71-.44-3.48-1.81-7.29-2.66-11.05-3.62-.69-.18-1.44-.28-2.16-.26-.8.03-1.21.5-1 1.4zM15.08 17.07c-2.07.26-4.15.55-6.22.83-.54.08-1.09.14-1.65.22-.08.96.3 1.48.91 1.85 1.94 1.17 3.86 2.35 5.83 3.46.91.52 1.89.68 2.93.16.49-.24 1.09-.29 1.65-.36 3.88-.48 7.76-.95 11.64-1.38 2.51-.27 5.03-.47 7.55-.71.01-.08.02-.16.02-.24-2.88-.49-5.76-.95-8.63-1.46-4.22-.75-8.44-1.56-12.66-2.32-.45-.07-.92-.1-1.37-.05zm64.5 2.15c-5.88-.83-11.77-1.6-17.66-2.34-6.65-.84-13.34-.74-20.03-.64-5.31.07-10.63.25-15.94.36-1.81.03-3.62-.01-5.43-.02 0 .14.01.28 0 .43.15.06.29.16.44.19 3.06.53 6.12 1.05 9.18 1.59 3.07.53 6.12 1.1 9.19 1.59 1.11.18 2.25.27 3.38.22 2.93-.13 5.86-.47 8.8-.54 5.21-.14 10.4.21 15.6.6 4.79.35 9.62.28 14.43.43 2.99.09 5.99.25 8.99.37.82.03 1.65.02 2.47.02-4.48-.87-8.94-1.63-13.42-2.26zM13.4 16.59c-1.85-.48-3.33-.87-4.85-1.27-.28.52-.55 1.04-.93 1.77 1.94-.17 3.65-.32 5.78-.5zm73.96-5.97c5.09 1.06 10.25 1.81 15.24 3.24 5.64 1.62 11.17 3.64 16.92 4.91 2.59.57 5.09 1.42 7.77 1.69 4.32.43 8.66.99 12.77 2.55.69.26 1.45.32 2.17.47.02-.14.04-.29.05-.43-.47-.21-.95-.41-1.68-.73.67-.17 1.04-.26 1.6-.4-3.71-1.01-7.2-1.91-10.67-2.9-4.19-1.19-8.34-2.48-12.51-3.7-2.33-.68-4.71-1.2-7.01-1.97-2.55-.86-5.15-1.23-7.81-1.35-1.81-.08-3.62-.1-5.42-.31-3.48-.39-6.95-.9-10.43-1.35-.52-.07-1.05-.09-1.58-.13.17.31.38.37.59.41zm-53.88-.64c-5.76-.14-11.53-.13-17.29.49-2.9.32-4.85 1.85-7.11 3.9.94.38 1.53.75 2.17.86 2.96.47 5.9 1.12 8.93.78 1.29-.15 2.59-.23 3.9-.26 2.99-.06 5.99-.02 8.99-.09 9.22-.24 18.45-.61 27.66.27 3.66.35 7.33.66 10.97 1.19 5.65.81 11.27 1.82 16.91 2.66 3.35.5 6.75.73 10.09 1.27 3.81.62 7.61 1.13 11.47 1.17 3.31.05 6.62.04 10.21.06-.39-.28-.5-.41-.64-.45-3.26-.92-6.5-1.9-9.78-2.73-4.77-1.2-9.54-2.43-14.36-3.4-4.76-.97-9.57-1.71-14.38-2.43-3.86-.59-7.73-1.1-11.61-1.46-4.68-.43-9.37-.72-14.07-.94-7.34-.36-14.7-.71-22.06-.89zm58.98 2.33c-5.51-1.19-11.05-2.22-16.57-3.32-.01.13-.03.25-.05.38 3.81 1.2 7.6 2.48 11.44 3.56 2.33.65 4.75.95 7.12 1.46 2.81.6 5.62 1.24 8.42 1.9 1.89.45 3.79.6 5.97.58-5.4-2.39-10.9-3.39-16.33-4.56zM15.01 8.4c-1.66 1.13-4.04.79-5.48 2.7 2.24-.25 4.42-1.31 5.48-2.7zm48.36-1.3c-2.6-.21-5.2-.32-7.79-.42-4.41-.18-8.82-.43-13.23-.46-5.43-.03-10.87.11-16.29.23-1.06.02-2.16.19-3.16.52-1.68.54-3.28 1.26-4.9 1.92-.28.12-.54.3-.79.44 21.83-.73 43.54.55 65.37 3.11-.4-.17-.64-.31-.9-.38C76.62 10.63 71.56 9.2 66.5 7.8c-1.03-.29-2.08-.61-3.13-.7zM40.13 1.58c-3.92.55-7.84 1.09-11.73 1.83-1.95.38-3.81 1.19-5.71 1.81 3.85.27 7.59-.26 11.34-.47 3.72-.21 7.46 0 11.19.14 3.71.15 7.42.46 11.13.7-.55-.41-1.12-.65-1.71-.8-4-1.01-8-2.01-12.01-2.97-.8-.2-1.68-.35-2.5-.24zm38.84 4.54C71.5 4.83 64.03 3.56 56.55 2.38c-2.23-.35-4.51-.39-6.76-.57-1.13-.09-2.27-.21-3.4-.32-.02.11-.04.22-.05.33.59.12 1.18.25 1.76.39 1.66.38 3.34.66 4.96 1.17C58.2 5 63.41 6.12 68.86 6.19c4.03.06 7.94 1.15 11.85 2.08.94.22 1.87.49 2.82.61 5.61.7 11.24 1.36 16.86 2.03.91.1 1.85.13 2.77.2.01-.09.02-.16.02-.24-3.25-.66-6.48-1.35-9.73-1.97-2.72-.52-5.47-.92-8.19-1.43-2.11-.4-4.18-.99-6.29-1.35zM30.64 2.03c.91-.12 1.8-.35 2.7-.53-8.62-1.1-15.55 1.14-21.5 7.01.58-.2 1.15-.41 1.73-.61 1.65-.57 3.3-1.13 4.95-1.73.8-.29 1.59-.6 2.34-.97 3.12-1.52 6.33-2.69 9.78-3.17zM25.05.6c3.24-.45 6.4-.41 9.63-.21 3.33.21 6.67.08 10 .17 2.26.06 4.52.24 6.78.38 5.33.3 10.53 1.47 15.8 2.22 4.03.57 8.03 1.29 12.03 2.01 2.11.38 4.19.96 6.3 1.36 4.28.81 8.59 1.44 12.84 2.37 4.63 1.01 9.32 1.78 13.81 3.46 2.69 1 5.57 1.48 8.34 2.26 4.73 1.35 9.41 2.87 14.17 4.11 2.5.65 5.11.9 7.69 1.23.74.1 1.56-.33 2.29-.21 1.95.29 3.9.67 5.8 1.17 3 .8 5.98 1.64 8.67 3.29.62.37 1.51.34 2.28.42 1.33.15 2.73.06 4.01.41 2.39.64 4.83.47 7.24.68 2.59.23 5.17.54 7.76.78 4.28.39 8.52.87 12.85.12 2.35-.4 4.81-.14 7.23-.15 1.46-.01 2.84-.06 4.22-.84 1.86-1.05 4.22-.45 5.76 1.13.43.44.88.87 1.26 1.35 1.31 1.62.19 4.75-1.86 5.19-2.02.44-3.97.5-5.92-.51-1.06-.55-2.37-.62-3.57-.91-.38-.09-.76-.21-1.15-.3-.64-.14-1.29-.26-1.93-.41-.57-.14-1.15-.3-1.72-.46-.16-.04-.31-.18-.46-.18-2.01-.07-4.02-.13-6.03-.15-1.24-.02-2.5.1-3.73 0-2.35-.19-4.69-.49-7.03-.73-1.94-.19-3.88-.4-5.82-.51-.66-.05-1.33.21-2.01.25-2.19.14-4.38.23-6.58.4-.49.04-.96.38-1.73.69l.01.01c-.03 0-.27-.07-.42-.23-.74-.77-1.5-.7-2.47-.38-1.71.57-3.48.95-5.23 1.41-.6.16-1.19.33-1.8.47-.87.2-1.75.47-2.64.55-1.92.15-3.84.24-5.76.27-1 .01-2.03-.34-3.01-.24-3.14.32-6.27.78-9.41 1.2-3.53.46-7.08.89-10.6 1.42-3.19.47-6.37 1.01-9.53 1.6-3.89.73-7.77 1.49-11.63 2.34-3.59.79-7.12 1.85-10.72 2.53-2.94.55-5.95.75-8.93 1.05-7.82.8-15.65 1.6-23.48 2.34-7.96.75-15.93 1.07-23.92.79-2.3-.08-4.62-.29-6.91-.64-1.38-.21-2.7-.79-4.04-1.22-1.28-.42-2.56-.89-3.85-1.28-2.21-.67-4.53-1.09-6.64-2.01-2.29-1-4.74-1.95-6.13-4.3-.49-.82-.91-1.66-1.32-2.53-.29-.6-.49-1.25-.72-1.85-1.01-.34-2.17-.12-2.88-1.26.88-.86 1.01-2.22 2.17-3.04.47-.34.46-1.34.69-2.03.26-.76-.09-1.26-.58-1.8-.43-.5-.68-1.16-1.01-1.75-.3-.54-.6-1.07-.89-1.6.71-1.89 2.55-2.06 4.16-2.72.29-1.33.98-2.6.56-4.07-.18-.61.13-1.11.76-1.28 1.21-.33 1.79-1.09 1.67-2.22 2.17-1.66 4.17-3.31 6.29-4.83 3.3-2.36 6.87-4.01 10.99-4.58z"/></svg>